<?xml version="1.0" standalone="no"?>
<!DOCTYPE svg PUBLIC "-//W3C//DTD SVG 20010904//EN"
 "http://www.w3.org/TR/2001/REC-SVG-20010904/DTD/svg10.dtd">
<svg version="1.0" xmlns="http://www.w3.org/2000/svg"
 width="1640.000000pt" height="1640.000000pt" viewBox="0 0 1640.000000 1640.000000"
 preserveAspectRatio="xMidYMid meet">
<metadata>
Created by potrace 1.11, written by Peter Selinger 2001-2013
</metadata>
<g transform="translate(0.000000,1640.000000) scale(0.100000,-0.100000)"
fill="#000000" stroke="none">
<path d="M3859 14437 c0 -18 -1 -810 -1 -1761 0 -1572 1 -1730 15 -1735 9 -3
184 -6 389 -5 l373 1 3 1374 2 1374 1375 -1 1374 -1 -1 393 -1 392 -1763 0
-1764 0 -1 -31z"/>
<path d="M8362 14077 l3 -392 1763 -1 1762 -1 0 393 0 393 -1765 0 -1765 -1 2
-391z"/>
<path d="M12867 14462 c-2 -4 -3 -180 -3 -392 l1 -385 1360 -2 c748 -1 1366
-2 1373 -2 9 -1 12 -282 12 -1370 0 -1086 3 -1370 13 -1373 6 -2 183 -3 392
-2 l380 1 0 1764 0 1764 -1763 2 c-969 0 -1763 -2 -1765 -5z"/>
<path d="M8390 10006 c-3 -2 -32 -7 -65 -10 -547 -61 -943 -370 -1074 -837
-11 -41 -23 -91 -27 -113 -3 -21 -7 -48 -10 -60 -14 -75 -18 -241 -18 -791 0
-341 3 -651 7 -690 5 -60 14 -112 43 -253 10 -50 65 -188 104 -259 185 -344
549 -555 1035 -600 137 -13 519 -4 546 13 3 2 24 6 45 9 120 15 305 76 424
139 251 131 440 347 528 601 25 71 49 165 57 220 4 22 8 51 11 65 2 14 7 77
10 140 l6 115 -383 -1 c-211 -1 -388 -2 -394 -3 -5 0 -11 -30 -12 -66 -10
-386 -297 -601 -738 -552 -280 30 -474 222 -501 495 -9 89 -9 1180 0 1257 29
259 188 435 441 489 101 21 318 15 407 -12 240 -72 384 -267 391 -527 l2 -75
394 0 393 0 -6 118 c-6 128 -9 150 -33 262 -76 358 -292 634 -616 785 -129 60
-236 92 -447 131 -40 7 -514 17 -520 10z"/>
<path d="M11900 10007 c-3 -3 -32 -8 -65 -11 -96 -11 -107 -13 -201 -36 -445
-111 -747 -378 -865 -765 -6 -22 -15 -51 -20 -65 -4 -14 -11 -43 -15 -65 -4
-22 -8 -49 -10 -60 -15 -77 -19 -236 -19 -800 0 -697 3 -766 41 -920 37 -148
82 -252 161 -373 132 -199 334 -351 583 -435 103 -35 139 -44 270 -68 173 -30
498 -32 680 -3 505 81 858 349 998 759 31 89 43 140 57 225 3 25 9 58 11 73 2
15 6 72 9 126 4 87 2 99 -13 103 -9 2 -186 4 -392 3 l-375 0 -2 -69 c-4 -133
-63 -296 -135 -376 -124 -135 -347 -204 -583 -179 -38 4 -79 10 -90 12 -11 3
-33 8 -50 13 -53 13 -149 62 -196 101 -97 81 -155 187 -185 343 -9 46 -11
1209 -3 1280 11 86 18 116 40 171 90 229 296 343 604 335 179 -5 290 -39 399
-122 81 -61 163 -198 182 -301 4 -21 8 -47 10 -57 2 -10 4 -47 5 -82 l2 -64
394 0 393 0 -5 102 c-32 662 -383 1061 -1040 1184 -86 16 -562 33 -575 21z"/>
<path d="M1159 9959 c-6 -3 -36 -86 -68 -185 -105 -321 -332 -1016 -378 -1154
-25 -74 -46 -139 -47 -145 -4 -18 -207 -640 -221 -675 -7 -19 -57 -170 -110
-335 -54 -165 -128 -392 -165 -505 -77 -237 -155 -475 -164 -506 l-7 -22 379
0 c208 0 383 3 388 6 10 7 14 20 60 172 14 47 34 112 44 145 10 33 35 114 55
180 20 66 39 127 41 135 2 8 10 35 17 60 l14 45 598 0 598 0 38 -130 c22 -71
52 -173 68 -225 16 -52 42 -135 56 -185 15 -49 35 -115 45 -145 l17 -55 421
-2 c324 -1 422 2 422 11 0 14 -10 45 -222 691 -84 253 -153 465 -154 470 -1 6
-47 147 -102 315 -55 168 -135 411 -177 540 -43 129 -92 280 -110 335 -35 104
-251 768 -330 1010 -25 76 -49 143 -55 149 -10 10 -935 15 -951 5z m627 -1469
c14 -47 44 -143 66 -215 21 -71 55 -182 74 -245 19 -63 39 -125 44 -137 5 -12
6 -24 2 -26 -14 -8 -762 -4 -762 4 0 5 7 29 16 55 9 25 17 54 19 63 2 9 38
126 80 261 42 135 78 252 80 260 7 28 115 380 134 435 5 17 19 63 32 104 l22
75 83 -275 c46 -151 96 -312 110 -359z"/>
<path d="M3867 9958 c-9 -5 -12 -423 -12 -1765 l0 -1758 920 0 c1014 0 1019 0
1207 64 321 109 517 339 574 676 12 70 9 357 -5 420 -59 272 -195 460 -424
586 l-49 26 72 48 c185 123 304 311 355 560 11 53 14 318 4 380 -39 244 -126
407 -292 546 -94 79 -259 158 -383 183 -11 3 -39 9 -64 14 -25 6 -88 14 -140
18 -119 9 -1747 11 -1763 2z m1663 -710 c135 -64 183 -162 176 -358 -5 -144
-36 -222 -114 -283 -75 -58 -98 -60 -544 -63 l-408 -2 0 370 0 369 418 -3 417
-3 55 -27z m32 -1412 c92 -34 163 -120 187 -226 10 -45 9 -227 -2 -265 -35
-125 -127 -205 -255 -223 -26 -3 -227 -6 -447 -6 l-400 -1 -3 371 -2 372 437
-2 c388 -2 443 -5 485 -20z"/>
<path d="M15620 9962 c-7 -3 -10 -601 -10 -1767 l0 -1763 392 1 393 2 0 1758
c0 1063 -4 1761 -9 1765 -10 6 -749 9 -766 4z"/>
<path d="M3859 5453 c0 -10 0 -3494 0 -3510 1 -10 361 -13 1765 -13 l1764 0 0
390 0 390 -26 0 c-15 1 -633 1 -1374 2 l-1348 1 0 1373 0 1374 -390 0 c-214 0
-390 -3 -391 -7z"/>
<path d="M15610 4086 l0 -1374 -1370 1 c-753 1 -1371 0 -1371 -3 -1 -3 -2
-179 -3 -393 l-1 -387 1765 0 1765 0 0 1763 0 1762 -393 3 -392 2 0 -1374z"/>
<path d="M8428 2712 l-68 -3 0 -389 0 -390 1765 0 1765 0 0 393 0 392 -1697 0
c-934 0 -1728 -1 -1765 -3z"/>
</g>
</svg>
