<svg id="Layer_1" data-name="Layer 1" xmlns="http://www.w3.org/2000/svg" xmlns:xlink="http://www.w3.org/1999/xlink" width="385.46" height="115.8" viewBox="0 0 385.46 115.8">
  <defs>
    <clipPath id="clip-path" transform="translate(-8.58 -103.41)">
      <rect x="-21.25" y="73.58" width="432.58" height="168.57" fill="none"/>
    </clipPath>
  </defs>
  <title>abcc-logo</title>
  <g clip-path="url(#clip-path)">
    <path d="M153.2,142.68l-2.47-5.75-2.58,5.75m5.51.92h-5.92l-.72,1.62a4.47,4.47,0,0,0-.36,1.35,1.15,1.15,0,0,0,.57,1,4.89,4.89,0,0,0,1.64.29v.46h-5.56v-.46a2.6,2.6,0,0,0,1.5-.73,11.26,11.26,0,0,0,1.44-2.54l6-13.35h.26l6,13.73a8.58,8.58,0,0,0,1.39,2.45,2,2,0,0,0,1.18.44v.46H153v-.46h.36a2.4,2.4,0,0,0,1.34-.27.58.58,0,0,0,.26-.56,1.44,1.44,0,0,0,0-.46c0-.07-.16-.39-.37-.93Z" transform="translate(-8.58 -103.41)" fill-rule="evenodd"/>
    <path d="M171.32,136.83v9a3.31,3.31,0,0,0,.26,1.65,1.44,1.44,0,0,0,1,.41v.45h-4.74v-1.55a5.1,5.1,0,0,1-1.65,1.45,3.7,3.7,0,0,1-1.85.45,2.7,2.7,0,0,1-1.7-.59,2.94,2.94,0,0,1-1-1.41,11.39,11.39,0,0,1-.26-2.8v-4.58a3.44,3.44,0,0,0-.25-1.63,1.38,1.38,0,0,0-1-.42v-.45h4.68v7.87a9,9,0,0,0,.11,1.6,1.22,1.22,0,0,0,.36.54,1.08,1.08,0,0,0,.61.19,1.25,1.25,0,0,0,.78-.24,4.62,4.62,0,0,0,1.18-1.29v-6.17a3.67,3.67,0,0,0-.2-1.63,1.53,1.53,0,0,0-1-.42v-.45" transform="translate(-8.58 -103.41)"/>
    <path d="M180.64,136.51l.2,3.93h-.41a6,6,0,0,0-1.59-2.39,2.44,2.44,0,0,0-1.6-.64,1.08,1.08,0,0,0-.82.34,1,1,0,0,0-.36.78,1.05,1.05,0,0,0,.2.64,12.57,12.57,0,0,0,2.22,1.74A9.56,9.56,0,0,1,180.9,143a3.54,3.54,0,0,1,.56,1.92,3.65,3.65,0,0,1-.51,1.88,3.35,3.35,0,0,1-1.34,1.42,3.89,3.89,0,0,1-2,.5,6.64,6.64,0,0,1-2.16-.52,1.84,1.84,0,0,0-.51-.13c-.32,0-.52.2-.67.61h-.42l-.2-4.15h.41a5.5,5.5,0,0,0,1.49,2.44,3.08,3.08,0,0,0,1.86.82,1.32,1.32,0,0,0,1-.36,1.14,1.14,0,0,0,.37-.88,1.47,1.47,0,0,0-.37-1,9.1,9.1,0,0,0-1.64-1.31,12.87,12.87,0,0,1-2.42-2,3.37,3.37,0,0,1-.83-2.24,3.78,3.78,0,0,1,.88-2.4,3.35,3.35,0,0,1,2.67-1.09,3.89,3.89,0,0,1,1.81.46,1.35,1.35,0,0,0,.57.18.63.63,0,0,0,.35-.08,3.14,3.14,0,0,0,.42-.53" transform="translate(-8.58 -103.41)"/>
    <path d="M186.77,132.61v4.22h2.72v1.22h-2.72v7.11a5.51,5.51,0,0,0,.1,1.3.81.81,0,0,0,.31.46.72.72,0,0,0,.46.18c.52,0,1-.41,1.49-1.22l.36.27a3.38,3.38,0,0,1-3.24,2.37,2.86,2.86,0,0,1-1.85-.61,2.75,2.75,0,0,1-1-1.36,16.29,16.29,0,0,1-.11-2.28v-6.22h-1.49v-.43a15.9,15.9,0,0,0,2.63-2.31,13.25,13.25,0,0,0,1.9-2.7" transform="translate(-8.58 -103.41)"/>
    <path d="M195.16,136.83v2.61a8.8,8.8,0,0,1,2-2.37,2.92,2.92,0,0,1,1.65-.59,1.41,1.41,0,0,1,1.08.43,1.54,1.54,0,0,1,.47,1.2,1.91,1.91,0,0,1-.42,1.28,1.24,1.24,0,0,1-1,.46,1.56,1.56,0,0,1-1.13-.43,4.63,4.63,0,0,0-.56-.45.55.55,0,0,0-.31-.09,1.06,1.06,0,0,0-.67.28,3.16,3.16,0,0,0-.78,1.19,8.83,8.83,0,0,0-.35,2.64v3.34a2,2,0,0,0,.1.91,1,1,0,0,0,.41.49,2.57,2.57,0,0,0,1,.18v.45h-6.23v-.45a1.41,1.41,0,0,0,1-.41,4.2,4.2,0,0,0,.26-1.85v-6.38a4.92,4.92,0,0,0-.11-1.26.82.82,0,0,0-.36-.5,1.71,1.71,0,0,0-.82-.23v-.45" transform="translate(-8.58 -103.41)"/>
    <path d="M206.69,145.75V141.9a7.09,7.09,0,0,0-2.27,1.88,2.28,2.28,0,0,0-.46,1.33,1.45,1.45,0,0,0,.41,1,1.18,1.18,0,0,0,.87.34,2.48,2.48,0,0,0,1.45-.7m0,.91a6.19,6.19,0,0,1-3.81,1.85,2.27,2.27,0,0,1-1.65-.63,2.34,2.34,0,0,1-.67-1.63,3.13,3.13,0,0,1,1.19-2.36,19.16,19.16,0,0,1,4.94-2.83v-1.15a4.88,4.88,0,0,0-.16-1.64,1.17,1.17,0,0,0-.56-.59,1.5,1.5,0,0,0-.88-.26,2.21,2.21,0,0,0-1.29.35.63.63,0,0,0-.36.52,1.28,1.28,0,0,0,.36.64,1.62,1.62,0,0,1,.47,1,1.37,1.37,0,0,1-.47,1,1.45,1.45,0,0,1-1.13.42,1.89,1.89,0,0,1-1.34-.47,1.36,1.36,0,0,1-.51-1.09,2.6,2.6,0,0,1,.72-1.69,4.47,4.47,0,0,1,2-1.24,7.68,7.68,0,0,1,2.63-.44,4.23,4.23,0,0,1,2.58.7,3.5,3.5,0,0,1,1.23,1.51,10.9,10.9,0,0,1,.16,2.37v4.49a3.57,3.57,0,0,0,.1,1,.47.47,0,0,0,.15.29.55.55,0,0,0,.31.09c.21,0,.41-.14.62-.44l.41.29a5,5,0,0,1-1.29,1.34,2.88,2.88,0,0,1-1.49.39,2.34,2.34,0,0,1-1.54-.44,2,2,0,0,1-.67-1.41" transform="translate(-8.58 -103.41)" fill-rule="evenodd"/>
    <path d="M216.67,131.64V146a2.59,2.59,0,0,0,.32,1.57,1.5,1.5,0,0,0,1.07.37v.45h-6.22v-.45a1.38,1.38,0,0,0,1.13-.44c.21-.18.26-.69.26-1.5V134a3.18,3.18,0,0,0-.26-1.54,1.59,1.59,0,0,0-1.13-.39v-.45" transform="translate(-8.58 -103.41)"/>
    <path d="M223.68,136.83V146a2.7,2.7,0,0,0,.3,1.57,1.65,1.65,0,0,0,1.14.37v.45h-6.23v-.45a1.57,1.57,0,0,0,1.13-.44,2.89,2.89,0,0,0,.21-1.5v-6.74c0-.82,0-1.33-.26-1.55a1.54,1.54,0,0,0-1.08-.4v-.45m3.09-5.59a1.8,1.8,0,0,1,1.33.56,1.87,1.87,0,0,1,.57,1.35,1.85,1.85,0,0,1-.57,1.34,1.76,1.76,0,0,1-1.33.56,1.78,1.78,0,0,1-1.34-.56,1.89,1.89,0,0,1-.57-1.34,1.91,1.91,0,0,1,.57-1.35,1.82,1.82,0,0,1,1.34-.56" transform="translate(-8.58 -103.41)" fill-rule="evenodd"/>
    <path d="M231.81,145.75V141.9a7.26,7.26,0,0,0-2.21,1.88,2.29,2.29,0,0,0-.47,1.33,1.29,1.29,0,0,0,.41,1,1.08,1.08,0,0,0,.83.34,2.34,2.34,0,0,0,1.44-.7m0,.91a6.06,6.06,0,0,1-3.76,1.85,2.21,2.21,0,0,1-1.65-.63,2.14,2.14,0,0,1-.67-1.63,3.11,3.11,0,0,1,1.14-2.36,21.45,21.45,0,0,1,4.94-2.83v-1.15a5.29,5.29,0,0,0-.15-1.64,1.08,1.08,0,0,0-.52-.59,1.61,1.61,0,0,0-.87-.26,2.36,2.36,0,0,0-1.34.35.66.66,0,0,0-.31.52.94.94,0,0,0,.36.64,1.6,1.6,0,0,1,.46,1,1.36,1.36,0,0,1-.46,1,1.61,1.61,0,0,1-1.19.42,1.83,1.83,0,0,1-1.28-.47,1.37,1.37,0,0,1-.52-1.09,2.53,2.53,0,0,1,.67-1.69,4.5,4.5,0,0,1,2-1.24,8,8,0,0,1,2.62-.44,4.47,4.47,0,0,1,2.63.7,3.36,3.36,0,0,1,1.23,1.51,10.26,10.26,0,0,1,.16,2.37v4.49a4.48,4.48,0,0,0,.05,1,.49.49,0,0,0,.21.29.3.3,0,0,0,.25.09.8.8,0,0,0,.67-.44l.37.29a4.62,4.62,0,0,1-1.29,1.34,2.82,2.82,0,0,1-1.5.39,2.55,2.55,0,0,1-1.54-.44,2.26,2.26,0,0,1-.67-1.41" transform="translate(-8.58 -103.41)" fill-rule="evenodd"/>
    <path d="M241.8,136.83v1.48a5.93,5.93,0,0,1,1.7-1.38,3.48,3.48,0,0,1,1.75-.45,2.64,2.64,0,0,1,1.85.63,2.78,2.78,0,0,1,1,1.54,10.83,10.83,0,0,1,.2,2.7v4.49a3.46,3.46,0,0,0,.26,1.66,1.32,1.32,0,0,0,1,.41v.45H243.7v-.45a1.19,1.19,0,0,0,.93-.54,3.18,3.18,0,0,0,.21-1.53v-5.13a10.59,10.59,0,0,0-.11-1.79,1.1,1.1,0,0,0-.41-.57.88.88,0,0,0-.57-.2c-.72,0-1.33.5-1.95,1.51v6.18a3.75,3.75,0,0,0,.2,1.64,1.34,1.34,0,0,0,.93.43v.45h-5.82v-.45a1.41,1.41,0,0,0,1-.47,4.11,4.11,0,0,0,.21-1.6v-6.51a3.39,3.39,0,0,0-.26-1.63,1.45,1.45,0,0,0-1-.42v-.45" transform="translate(-8.58 -103.41)"/>
    <path d="M272.28,131.25v5.89h-.47a7.71,7.71,0,0,0-2.47-3.67,6,6,0,0,0-3.66-1.26,4.54,4.54,0,0,0-3.08,1.06,5.46,5.46,0,0,0-1.75,2.93,14.19,14.19,0,0,0-.57,3.89,14.86,14.86,0,0,0,.57,4.22,4.75,4.75,0,0,0,4.83,3.51,5.74,5.74,0,0,0,1.24-.13,8.42,8.42,0,0,0,1.34-.38v-3.47a3.09,3.09,0,0,0-.16-1.28,1.21,1.21,0,0,0-.56-.53,2,2,0,0,0-1-.23h-.41v-.46h8.13v.46a3,3,0,0,0-1.28.25,1.14,1.14,0,0,0-.57.63,3,3,0,0,0-.1,1.16v3.47a17.16,17.16,0,0,1-3.35,1.07,16.7,16.7,0,0,1-3.61.38,10.84,10.84,0,0,1-4-.64,11.05,11.05,0,0,1-2.78-1.71,8.59,8.59,0,0,1-1.85-2.38,8.38,8.38,0,0,1-.88-3.81,8.65,8.65,0,0,1,2.63-6.38,9.21,9.21,0,0,1,6.69-2.6,13.09,13.09,0,0,1,2.27.19,12.11,12.11,0,0,1,1.75.58,7,7,0,0,0,1.44.44,1,1,0,0,0,.62-.24,2.1,2.1,0,0,0,.56-1" transform="translate(-8.58 -103.41)"/>
    <path d="M280.31,137.36a1.45,1.45,0,0,0-1.08.47,3,3,0,0,0-.57,1.88,37.94,37.94,0,0,0-.16,3.88,19.14,19.14,0,0,0,.16,2.48,2.34,2.34,0,0,0,.62,1.32,1.2,1.2,0,0,0,1,.46,1.41,1.41,0,0,0,.93-.3,2.16,2.16,0,0,0,.67-1.18,30.28,30.28,0,0,0,.21-4.73,11.85,11.85,0,0,0-.21-2.88,2.13,2.13,0,0,0-.72-1.14,1.22,1.22,0,0,0-.82-.26m-.06-.88a5.53,5.53,0,0,1,2.84.77,5.32,5.32,0,0,1,2,2.21,7.91,7.91,0,0,1,.67,3.14,6.69,6.69,0,0,1-1.23,4.11,5,5,0,0,1-4.17,2,4.78,4.78,0,0,1-4-1.83,6.79,6.79,0,0,1-1.39-4.24,6.68,6.68,0,0,1,1.44-4.31,4.67,4.67,0,0,1,3.91-1.85" transform="translate(-8.58 -103.41)" fill-rule="evenodd"/>
    <path d="M291.17,148.71l-3.91-9a9.34,9.34,0,0,0-1.09-2,1.46,1.46,0,0,0-.87-.43v-.45h6.18v.45a1.22,1.22,0,0,0-.83.21.86.86,0,0,0-.3.65,5.82,5.82,0,0,0,.56,1.71l1.91,4.33,1.49-3.74a6.65,6.65,0,0,0,.67-2.27.9.9,0,0,0-.26-.62,1.66,1.66,0,0,0-1-.27v-.45h3.76v.45a1.37,1.37,0,0,0-.87.41,6.92,6.92,0,0,0-1,2l-3.87,9.06" transform="translate(-8.58 -103.41)"/>
    <path d="M303.52,141.35a11.23,11.23,0,0,0-.2-2.72,2.29,2.29,0,0,0-.67-1.12,1,1,0,0,0-.67-.23,1.26,1.26,0,0,0-1.08.64,5.45,5.45,0,0,0-.72,3v.43m6.38.84h-6.33a6.18,6.18,0,0,0,1.24,3.61,2.53,2.53,0,0,0,2,1,2.43,2.43,0,0,0,1.34-.41,5.12,5.12,0,0,0,1.29-1.49l.41.27a6.76,6.76,0,0,1-2.06,2.71,4.8,4.8,0,0,1-6.54-1.18,7.23,7.23,0,0,1-1-3.94,6.6,6.6,0,0,1,1.55-4.6,4.79,4.79,0,0,1,3.66-1.71,3.84,3.84,0,0,1,3,1.45,6.31,6.31,0,0,1,1.39,4.26" transform="translate(-8.58 -103.41)" fill-rule="evenodd"/>
    <path d="M312.07,136.83v2.61a7.19,7.19,0,0,1,2-2.37,2.87,2.87,0,0,1,1.64-.59,1.41,1.41,0,0,1,1.09.43,1.51,1.51,0,0,1,.41,1.2,1.9,1.9,0,0,1-.36,1.28,1.35,1.35,0,0,1-1,.46,1.56,1.56,0,0,1-1.13-.43,4.33,4.33,0,0,0-.57-.45.53.53,0,0,0-.31-.09,1.11,1.11,0,0,0-.67.28,3.15,3.15,0,0,0-.77,1.19,8.52,8.52,0,0,0-.36,2.64v3.34a3.79,3.79,0,0,0,.05.91,1,1,0,0,0,.46.49,2.62,2.62,0,0,0,1,.18v.45h-6.23v-.45a1.38,1.38,0,0,0,1-.41,4.05,4.05,0,0,0,.26-1.85v-6.38a5.67,5.67,0,0,0-.1-1.26,1.16,1.16,0,0,0-.36-.5,1.76,1.76,0,0,0-.83-.23v-.45" transform="translate(-8.58 -103.41)"/>
    <path d="M322.67,136.83v1.48a8.16,8.16,0,0,1,1.7-1.38,3.68,3.68,0,0,1,1.75-.45,2.65,2.65,0,0,1,1.86.63,3.24,3.24,0,0,1,1,1.54,15.55,15.55,0,0,1,.15,2.7v4.49a3.33,3.33,0,0,0,.26,1.66,1.44,1.44,0,0,0,1,.41v.45h-5.87v-.45a1.11,1.11,0,0,0,.93-.54,3.22,3.22,0,0,0,.2-1.53v-5.13a7.1,7.1,0,0,0-.1-1.79,1.08,1.08,0,0,0-.36-.57,1,1,0,0,0-.62-.2c-.67,0-1.34.5-2,1.51v6.18a3.47,3.47,0,0,0,.26,1.64,1.2,1.2,0,0,0,.88.43v.45H318v-.45a1.45,1.45,0,0,0,1-.47,3.29,3.29,0,0,0,.21-1.6v-6.51a3.39,3.39,0,0,0-.26-1.63,1.36,1.36,0,0,0-1-.42v-.45" transform="translate(-8.58 -103.41)"/>
    <path d="M336.06,136.83v1.51a5.85,5.85,0,0,1,1.75-1.44,3.59,3.59,0,0,1,1.75-.42,3,3,0,0,1,1.86.52,3.14,3.14,0,0,1,1.18,1.58,7.07,7.07,0,0,1,1.9-1.6,3.84,3.84,0,0,1,1.91-.5,2.82,2.82,0,0,1,1.85.56,2.68,2.68,0,0,1,1,1.39,11,11,0,0,1,.26,2.69v4.72a3.26,3.26,0,0,0,.26,1.65,1.3,1.3,0,0,0,1,.42v.45h-5.92v-.45a1.32,1.32,0,0,0,1-.54,3.13,3.13,0,0,0,.21-1.53v-5a13.62,13.62,0,0,0-.1-2,1.15,1.15,0,0,0-.42-.62.91.91,0,0,0-.61-.2,1.84,1.84,0,0,0-1.08.39,4.74,4.74,0,0,0-1.09,1.16v6.19a3.39,3.39,0,0,0,.21,1.57,1.28,1.28,0,0,0,1.08.5v.45h-6v-.45a1.4,1.4,0,0,0,.77-.23,1.12,1.12,0,0,0,.36-.51,6.59,6.59,0,0,0,.1-1.33v-5a7.48,7.48,0,0,0-.15-2,1,1,0,0,0-.41-.62.9.9,0,0,0-.62-.22,1.56,1.56,0,0,0-.87.26,4.38,4.38,0,0,0-1.24,1.31v6.19a3.67,3.67,0,0,0,.21,1.62,1.35,1.35,0,0,0,1,.45v.45h-6v-.45a1.48,1.48,0,0,0,1.08-.47,4.19,4.19,0,0,0,.2-1.6v-6.51a3.27,3.27,0,0,0-.26-1.63,1.47,1.47,0,0,0-1-.42v-.45" transform="translate(-8.58 -103.41)"/>
    <path d="M358,141.35a10.53,10.53,0,0,0-.25-2.72,2.24,2.24,0,0,0-.62-1.12,1.15,1.15,0,0,0-.72-.23,1.17,1.17,0,0,0-1,.64,5.06,5.06,0,0,0-.72,3v.43m6.38.84h-6.33A5.62,5.62,0,0,0,356,145.8a2.54,2.54,0,0,0,2,1,2.2,2.2,0,0,0,1.34-.41,5.16,5.16,0,0,0,1.34-1.49l.41.27a6.82,6.82,0,0,1-2.11,2.71,4.32,4.32,0,0,1-2.63.8,4.37,4.37,0,0,1-3.86-2,6.85,6.85,0,0,1-1.08-3.94,6.4,6.4,0,0,1,1.6-4.6,4.79,4.79,0,0,1,3.65-1.71,4,4,0,0,1,3,1.45,6.87,6.87,0,0,1,1.39,4.26" transform="translate(-8.58 -103.41)" fill-rule="evenodd"/>
    <path d="M366.23,136.83v1.48a6.07,6.07,0,0,1,1.7-1.38,3.48,3.48,0,0,1,1.75-.45,2.82,2.82,0,0,1,1.85.63,2.78,2.78,0,0,1,1,1.54,10.68,10.68,0,0,1,.21,2.7v4.49c0,.89,0,1.45.25,1.66a1.34,1.34,0,0,0,1,.41v.45h-5.82v-.45a1.28,1.28,0,0,0,.93-.54,3.18,3.18,0,0,0,.21-1.53v-5.13a10.59,10.59,0,0,0-.11-1.79,1.1,1.1,0,0,0-.41-.57.87.87,0,0,0-.56-.2c-.72,0-1.39.5-2,1.51v6.18a3.75,3.75,0,0,0,.2,1.64,1.24,1.24,0,0,0,.93.43v.45h-5.87v-.45a1.49,1.49,0,0,0,1.09-.47,4.19,4.19,0,0,0,.2-1.6v-6.51a3.27,3.27,0,0,0-.26-1.63,1.48,1.48,0,0,0-1-.42v-.45" transform="translate(-8.58 -103.41)"/>
    <path d="M378.84,132.61v4.22h2.78v1.22h-2.78v7.11a5.32,5.32,0,0,0,.11,1.3.9.9,0,0,0,.36.46.61.61,0,0,0,.41.18c.51,0,1-.41,1.49-1.22l.41.27a3.38,3.38,0,0,1-3.24,2.37,2.94,2.94,0,0,1-1.91-.61,2.67,2.67,0,0,1-.92-1.36,8.93,8.93,0,0,1-.16-2.28v-6.22H373.9v-.43a16.32,16.32,0,0,0,2.63-2.31,13.87,13.87,0,0,0,2-2.7" transform="translate(-8.58 -103.41)"/>
    <path d="M50.13,175.89a.54.54,0,0,1-.31.32" transform="translate(-8.58 -103.41)"/>
    <path d="M53.07,153.3a.61.61,0,0,0,0-1.22.61.61,0,1,0,0,1.22" transform="translate(-8.58 -103.41)"/>
    <path d="M80.4,140H73.81V128.38H80.4m0,17.21A3.63,3.63,0,0,1,79,148.48l-5.2,3.12v-11H80.4ZM73.2,140H67.07V128.38H73.2Zm0,11.91-2.37,1.44h0a1.23,1.23,0,0,1-.67.23,1,1,0,0,1-.62-.24L67.07,152V140.64H73.2Zm-8.6-16.18h1.9V140H64.6Zm1.9,15.83-5.2-3.12a3.88,3.88,0,0,1-1.44-2.89v-5H66.5Zm-4.32-18.72H59.86v-4.5h2.32Zm.56-2.81.26-.29-.15-.3.36,0,.2-.37.21.37.36,0-.21.3.31.29-.36.06v.38l-.31-.24-.35.24v-.38Zm1.6,4.7c0-.12-.15-.14-.21-.14s-.3.33-.46.34-.2,0-.2-.14.25-.2.36-.3c-1.44,0-1.44.65-1.65.65-.41,0,.31-.69.46-.88-.25-.05-.41-.4-.72-.58.1-.21.21-.12.41,0,0-.16.11-.33.41-.33.62,0,.47.62.57.62s0-.62.41-.62c.62,0,1.39,1.61.72,1.61-.31,0-.1-.23-.1-.27m-1.49,3.44.36,0,.2-.37.21.36.36,0-.21.3.31.27-.36.08v.37l-.31-.24-.35.24v-.37l-.32-.08.26-.27Zm-2.58-4.36.37,0,.2-.36.21.36.36,0-.21.32.31.27-.36.06v.39l-.31-.24-.36.24v-.39l-.31-.06.26-.27Zm-.41,1.92h2.32V140H59.86Zm5.25-1.33.31-.27-.2-.32.36,0,.2-.36.21.36.36,0-.16.32.26.27-.31.06v.39l-.36-.24-.31.24v-.39Zm1.39-1.56H64.6v-4.5h1.9ZM81,127.79v0H59.24v0l.06,17.58c0,1.69.72,3.17,1.69,3.63l8.4,5a.86.86,0,0,0,.72.34,1.11,1.11,0,0,0,.72-.26L79.32,149c1-.46,1.7-1.94,1.7-3.63Z" transform="translate(-8.58 -103.41)"/>
    <path d="M66.14,144.67c0-.07-.82.26-.62.24a2.82,2.82,0,0,1,.67-.89c0-.28-.36,0-.77.17,1.29-1.78.47-1.05-.2-.93,1.08-1.18.77-1.17,0-.8.61-.5.77-1.11.67-1.29-.62.81-1.19.68-1.19,1.43a2.86,2.86,0,0,1-.41,1.55c-.31.36-.05-1.3-.93-1.3-.25,0-.92,0-1.08.3.16,0,.41.45.41.63s.16.65-.15.65-.62-.61-.62-.91v-.63a2.32,2.32,0,0,0-1.6-1.69c0,.48.62.6.62,1.23-.25,0-.67-.51-.67-.2s.42.37.42.64-.47-.09-.47.19.26.22.31.48c-.15,0-.36,0-.36.07s0,.19.21.26c-.11.06-.16.21-.16.63,0,1.39.88,2,1.5,2,.46,0,.41-.32.46-.47,0,.24.26-.12.26.3s-.47.24-.47.6.72,0,.72.53a5,5,0,0,1-.1.9c0,.19.72-.24.67-.31.21.06.21.58.52.57s.25-.53.41-.58c-.11,0,.67.49.67.26,0-.65-.26-.37-.26-.81s.87-.33.72-.55-.16-.06-.26-.37c0,.06-.72-1,.16-.47s1-1.36.92-1.46" transform="translate(-8.58 -103.41)"/>
    <path d="M89.36,149.26a.66.66,0,0,0,.72-.62.73.73,0,0,0-1.44,0,.66.66,0,0,0,.72.62" transform="translate(-8.58 -103.41)"/>
    <path d="M86.48,151a.68.68,0,0,0,.72-.64.73.73,0,0,0-1.44,0,.68.68,0,0,0,.72.64" transform="translate(-8.58 -103.41)"/>
    <path d="M52.09,155a.71.71,0,0,0,.72-.63.7.7,0,0,0-.72-.63.64.64,0,1,0,0,1.26" transform="translate(-8.58 -103.41)"/>
    <path d="M54.3,155.15a.67.67,0,0,0,.72-.64.73.73,0,0,0-1.44,0,.68.68,0,0,0,.72.64" transform="translate(-8.58 -103.41)"/>
    <path d="M116.23,125.12a4.41,4.41,0,0,1,.52,4.74c-.41,0-.31-.56-.41-.88a5.69,5.69,0,0,1-.67-4.81c.51.07.31.69.56,1" transform="translate(-8.58 -103.41)"/>
    <path d="M25.37,126.85a5.9,5.9,0,0,0,0,3c-.2.19-.16-.19-.36-.14-1.49-1.08-.77-3.19-1.18-4.67a.32.32,0,0,1,.41-.08,2.76,2.76,0,0,1,1.13,1.88" transform="translate(-8.58 -103.41)"/>
    <path d="M119.48,127c.26.42-.16.84-.47,1a1,1,0,0,1-1-.42.91.91,0,0,1,.46-1,.93.93,0,0,1,1,.38" transform="translate(-8.58 -103.41)"/>
    <path d="M23.05,128.64a1.25,1.25,0,0,1-.51.85c-.21,0-.57,0-.72-.2a.76.76,0,0,1-.16-.8.9.9,0,0,1,.72-.34c.26.11.57.18.67.49" transform="translate(-8.58 -103.41)"/>
    <path d="M121,129.3a.59.59,0,0,1,0,.6.85.85,0,0,1-1,.35c-.26-.16-.31-.42-.41-.65a1.33,1.33,0,0,1,.67-.69,1.15,1.15,0,0,1,.77.39" transform="translate(-8.58 -103.41)"/>
    <path d="M118.81,129.33c.31.16.1.53,0,.76-.21.19-.46.49-.82.39-.16-.2-.42-.2-.47-.46a.86.86,0,0,1,.52-.88.92.92,0,0,1,.72.19" transform="translate(-8.58 -103.41)"/>
    <path d="M116,129.9c0,.42,0,1-.46,1s-.73-.22-.88-.53a.94.94,0,0,1,.62-.91,1,1,0,0,1,.72.41" transform="translate(-8.58 -103.41)"/>
    <path d="M27.17,130.09c.1.39-.26.62-.46.81a.77.77,0,0,1-.77-.42c-.26-.27,0-.5.15-.73a.69.69,0,0,1,1.08.34" transform="translate(-8.58 -103.41)"/>
    <path d="M24.91,130.21a.77.77,0,0,1-.42.72.66.66,0,0,1-.77-.35.62.62,0,0,1,.36-.86c.41-.16.67.23.83.49" transform="translate(-8.58 -103.41)"/>
    <path d="M106.87,130.35a9.49,9.49,0,0,1,.77,2.77c-.16.72.1,1.67-.47,2.18-.51-.19-.56-.84-.87-1.19-.67-1.34-.1-2.91.15-4.21.31-.11.31.27.42.45" transform="translate(-8.58 -103.41)"/>
    <path d="M23.11,130.83c.1.45-.21.68-.47.95a1,1,0,0,1-1-.54,1.05,1.05,0,0,1,.52-.92.94.94,0,0,1,.93.51" transform="translate(-8.58 -103.41)"/>
    <path d="M112.84,131.92a5.34,5.34,0,0,1,.2,3.68l-.2.2a15.73,15.73,0,0,1-1.6-3.1,5,5,0,0,1,.46-2.19c.26-.19.42,0,.57.27a1.41,1.41,0,0,0,.57,1.14" transform="translate(-8.58 -103.41)"/>
    <path d="M117.62,131.24a.89.89,0,0,1-.56.92.69.69,0,0,1-.88-.46.84.84,0,0,1,.42-.92c.41-.23.87.16,1,.46" transform="translate(-8.58 -103.41)"/>
    <path d="M25,132.43a.8.8,0,0,1-.57.72c-.31.23-.57-.15-.82-.26-.1-.32-.21-.58,0-.88s.36-.23.61-.31c.37.19.67.34.78.73" transform="translate(-8.58 -103.41)"/>
    <path d="M26.61,132.24c.15.38-.26.56-.42.76-.46.15-.67-.2-.87-.46a.93.93,0,0,1,.41-.85c.46-.1.67.2.88.55" transform="translate(-8.58 -103.41)"/>
    <path d="M118.7,132.12c0,.5-.82,1-.87,1.49a3.85,3.85,0,0,1-2.37,2.15,1.62,1.62,0,0,1-.87.49c0-.77.62-1.46,1-2.14a5.75,5.75,0,0,1,3.08-2" transform="translate(-8.58 -103.41)"/>
    <path d="M24.18,133.73a16.39,16.39,0,0,0,1.55,1.8.29.29,0,0,1-.26.37c-1.85-.1-3.09-2-4-3.36.1-.42.62-.07.87-.11.62.49,1.34.65,1.85,1.3" transform="translate(-8.58 -103.41)"/>
    <path d="M119.22,134.26a4.89,4.89,0,0,1-2.32,4.13c-.46.15-.87.57-1.33.31a20.84,20.84,0,0,1,3.34-4.44" transform="translate(-8.58 -103.41)"/>
    <path d="M112,135.37a1,1,0,0,1-.67,1.11c-.41,0-.67-.31-.87-.61a.8.8,0,0,1,.51-.85.74.74,0,0,1,.47-.11c.25.08.36.27.56.46" transform="translate(-8.58 -103.41)"/>
    <path d="M22.08,135.71a24.56,24.56,0,0,1,2.06,1.8c-.47.35-1.09,0-1.65,0-1.29-.45-2.17-1.56-3.5-2,.05-.42.51-.26.77-.38a6.92,6.92,0,0,1,2.32.49" transform="translate(-8.58 -103.41)"/>
    <path d="M62.74,124.4c-2.1-.84-3.55,1.37-5.71,1.11-.26.15-.15.42-.31.61s-.31,0-.41,0c-.15-.92-.41-1.75-.57-2.63-.2-.39-.1-.93-.31-1.3-1.18-3.33,3-.81,3.82-2.75.72-1.69-1.4-1.89-2.06-3.07v-.49c-.57-.62-1.24-.81-1.6-1.62a5.64,5.64,0,0,0,.1-2.94c0-.23-.2-.53-.51-.42-.72,1-1.29,1.81-2,2.76A17.27,17.27,0,0,0,51,111.93c-.57-.07-1.08-.65-1.7-.42-.16.23,0,.42.1.58a5.46,5.46,0,0,0,1.85,3.75l.11.57c-.67,1.56-.47,3.36-.67,5A27.85,27.85,0,0,1,42.41,133c-2.16,2.45-4.74,4.83-5.1,8.19-.1.53.11,1.18-.36,1.57a13.69,13.69,0,0,1-3.5-1.87c-1.75-1.23-4.27-1.07-5.4-3.29-.47-.88.1-1.76.51-2.42,1.34-1.21,1.13-3.4.46-4.89-.15,0-.2.16-.3.19-.16,2.26-1.91,3.83-1.24,6.31.16.73.52,1.19.72,1.88a8.41,8.41,0,0,1-.87-.19,9.31,9.31,0,0,0-2.53-.35c-1.75.8-4.17-.18-5.56,1.42-.2,0-.51.07-.46.41.82,0,1.65.24,2.47.19,1.34.23,2.21-.88,3.14-1.37h.21c.36-.38,1-.15,1.54-.23a15,15,0,0,1,6.18,2.61v.14c-.72.35-1.6.58-2.37,1a5.15,5.15,0,0,0-2.11,2.56c-.62,1,.16,1.79.57,2.6.05.39.05.84.41,1,1.18-1.29.05-2.91.26-4.39a3.14,3.14,0,0,1,2.47-2c2.16-.91,3.7.84,5.45,1.83a24.79,24.79,0,0,1-.2,5.17,4.33,4.33,0,0,1-1.75.26c-3,.23-5.36,1.88-8.08,2.8-1.19.42-2.63.38-3.86.84a9.32,9.32,0,0,0,2.93-.12c3.71-.53,6.59-3.4,10.6-2.91l.06.12a9.2,9.2,0,0,1-1.76,2.49c-.15-.42-.15-.77-.56-1s-.62,0-.88.31a.58.58,0,0,0,0,.57,1.35,1.35,0,0,0,.88.54c-.11.34-.51.5-.72.8-1.08,1.79-3.24,1.07-4.48,2.34-.21.26-.88.41-.62.83a5.63,5.63,0,0,0,3.91-1c1.45-1.57,2.89-3.06,4.33-4.55a4.63,4.63,0,0,1-.83,3.48,4.72,4.72,0,0,0-1-.58,1,1,0,0,0-.72.77,2.37,2.37,0,0,0,.57.76c-1.29.92-2.88,1-4.37,1.42a73.68,73.68,0,0,1-8.29.6c-1.34-.07-2.83.39-4.12,0-1.44.28-3-.18-4.17.62-.16.19.05.39.05.58,1.75,1.14,4.12.23,6.13.57H34.94a6.78,6.78,0,0,0,3.09-.57c2-1.11,3-3.1,4-5.05a7,7,0,0,0,.82-2.29,3.23,3.23,0,0,1,2.83-2.33,16.54,16.54,0,0,1-.62,5.8c-.25,1.23-1,2.41-.56,3.71.15.62.77.62,1.29.69,4.58-.07,9.16-.27,14.05.07a11.14,11.14,0,0,0,2.58.39c0-.11.3-.16.2-.39a1.37,1.37,0,0,0-.93-1.06c0-.23-.41-.16-.51-.31-2.42-1.38-5.36-.66-8.19-.61-1.49.15-3,.41-4.22-.42-.56-.69-.15-2.87-.15-2.87A55.56,55.56,0,0,1,51,147a6.3,6.3,0,0,0,.2-1.76,7.22,7.22,0,0,0,.26-2.59,17.73,17.73,0,0,1,1.13-3.56c.26-.58.46-1.19.67-1.76a5.34,5.34,0,0,1,.77-2c1.24.79,2.42.76,3,2.17l.52,3.19c0,.19.15.56.41.33,1-.65.67-2.1.67-3.08.25-1.2-.57-1.76-.93-2.8a5.19,5.19,0,0,1-.72-1.1c-.15-.84-2-1.42-1.55-2.46a3.13,3.13,0,0,1,1.29-2.18.85.85,0,0,1,.21.28l.41-.33,0-3.19c1.24,0,3.09.15,4.33.15.36.11.61.39,1,.42l.31-.42,3.09-.6c-1.29.14-2.11-1.35-3.35-1.35" transform="translate(-8.58 -103.41)"/>
    <path d="M33,136.4a.93.93,0,0,1-.56.88c-.31-.11-.57-.15-.73-.46s.21-.72.52-.88c.31.08.67.12.77.46" transform="translate(-8.58 -103.41)"/>
    <path d="M30.57,136.4a.89.89,0,0,1,.15.88c-.26.23-.72.42-.92.12s-.47-.5-.26-.81.72-.49,1-.19" transform="translate(-8.58 -103.41)"/>
    <path d="M112.32,137.47c.16.42-.2.72-.51.88-.36-.11-.88-.19-.88-.69a.74.74,0,0,1,.62-.56c.31-.12.62.14.77.37" transform="translate(-8.58 -103.41)"/>
    <path d="M114.33,137.4c.1.19.36.49.1.69s-.31.15-.41.3a.69.69,0,0,1-.87-.46c-.11-.42.25-.6.56-.8s.41.11.62.27" transform="translate(-8.58 -103.41)"/>
    <path d="M21.05,137.86a.77.77,0,0,1-1,.49,1.21,1.21,0,0,1-.31-.49c.05-.27.1-.53.41-.65a.92.92,0,0,1,.93.65" transform="translate(-8.58 -103.41)"/>
    <path d="M33.81,138.51a1.25,1.25,0,0,1-.62.72,1,1,0,0,1-.87-.53.78.78,0,0,1,.46-.77.86.86,0,0,1,1,.58" transform="translate(-8.58 -103.41)"/>
    <path d="M31.6,138.24a.64.64,0,0,1,.1.61c-.21.19-.56.54-.92.31s-.52-.35-.47-.73a1.89,1.89,0,0,1,.57-.45c.31-.09.46.11.72.26" transform="translate(-8.58 -103.41)"/>
    <path d="M120.15,138.7a1,1,0,0,1-.52.72.73.73,0,0,1-.82-.19c-.21-.07-.16-.38-.16-.57a1.46,1.46,0,0,1,.72-.5,1.48,1.48,0,0,1,.78.54" transform="translate(-8.58 -103.41)"/>
    <path d="M122.57,139a.91.91,0,0,1-.72.69c-.21,0-.62-.11-.57-.46a.66.66,0,0,1,1.29-.23" transform="translate(-8.58 -103.41)"/>
    <path d="M25.37,139.58a.8.8,0,0,1-.46.92c-.26.14-.52,0-.73-.2a.65.65,0,0,1-.2-.77c.1-.34.41-.26.67-.41a1,1,0,0,1,.72.46" transform="translate(-8.58 -103.41)"/>
    <path d="M27.22,139.92c.11.31-.25.42-.31.65a.59.59,0,0,1-.67.07c-.25-.23-.56-.57-.3-.91.3-.57,1.08-.27,1.28.19" transform="translate(-8.58 -103.41)"/>
    <path d="M117.88,139.73c.05.38-.26.65-.51.87a.65.65,0,0,1-.77-.45.88.88,0,0,1,.41-.73c.36,0,.72,0,.87.31" transform="translate(-8.58 -103.41)"/>
    <path d="M121,140.34c-.1.35,0,.72-.41.95a1.13,1.13,0,0,1-.93-.14.79.79,0,0,1-.15-.81.92.92,0,0,1,.93-.46c.25.16.3.35.56.46" transform="translate(-8.58 -103.41)"/>
    <path d="M23.93,141.15c.15.3-.21.37-.31.53-.26.15-.51,0-.77-.07s-.16-.55-.11-.74c.37-.64,1-.18,1.19.28" transform="translate(-8.58 -103.41)"/>
    <path d="M118.6,141.87c.16,0,.11.27.05.34a2.86,2.86,0,0,1-3.08-.15,8.32,8.32,0,0,0-1.5-.84c.21-.49.88-.46,1.34-.58,1.13.16,2,1.19,3.19,1.23" transform="translate(-8.58 -103.41)"/>
    <path d="M25.73,141.52c.1.31-.15.42-.21.65s-.46.16-.66.09a.74.74,0,0,1-.26-1,.68.68,0,0,1,1.13.23" transform="translate(-8.58 -103.41)"/>
    <path d="M29.08,141.75a.68.68,0,0,1-.36.85c-.26.15-.52-.08-.73-.11-.2-.28-.56-.58-.2-.88.36-.58,1-.28,1.29.14" transform="translate(-8.58 -103.41)"/>
    <path d="M73,143.37c-.1.77-1.34-.11-1.18.91a5.63,5.63,0,0,0,.77,2.14c.36.52.15,1.31.15,1.93a3.75,3.75,0,0,1-1.44,1.24c-1.08-.11-2.68.54-3.19-.81a5.55,5.55,0,0,1-.62-1.81c.1-.07.26-.07.36-.18s-.31-.41-.26-.66c1.24-.22-.51-1.3.57-1.38.82.91,2.26.62,3,1.59a4.91,4.91,0,0,0,.56.49c-.15-.92-.56-1.82-.72-2.8a1.29,1.29,0,0,1,.41-1.28c.67-.5,1.24.22,1.6.62" transform="translate(-8.58 -103.41)"/>
    <path d="M32.42,143.14c.11.37-.2.6-.41.79s-.52-.23-.67-.42c-.15-.37.15-.56.36-.76a.8.8,0,0,1,.72.39" transform="translate(-8.58 -103.41)"/>
    <path d="M55.85,143.51a5.14,5.14,0,0,1-.47,4.28c-.05.31,0,.81-.36.77-1-1.42-.26-3.4.16-4.89.1-.39.56-.53.67-.16" transform="translate(-8.58 -103.41)"/>
    <path d="M88.33,144.24a4.43,4.43,0,0,1,.1,3.55l-.3.32a7.36,7.36,0,0,1-.88-2.72,8.63,8.63,0,0,0,.41-2c.57-.12.52.56.67.87" transform="translate(-8.58 -103.41)"/>
    <path d="M35.36,144.66c-.21.45-.88.57-1.29.88a4.45,4.45,0,0,1-3.35.65,4.11,4.11,0,0,1,4.33-1.8c.05.16.26.08.31.27" transform="translate(-8.58 -103.41)"/>
    <path d="M19.76,146c1.44,1,1.8,2.37,2.62,3.74.11.16.52.19.36.5s-.61-.23-1-.15a4.15,4.15,0,0,1-2.32-3.94c0-.15.2-.15.36-.15" transform="translate(-8.58 -103.41)"/>
    <path d="M86.84,147.23c0,.38,0,.75-.31.87a.71.71,0,0,1-.88-.45c-.15-.28.11-.42.16-.62a.68.68,0,0,1,1,.2" transform="translate(-8.58 -103.41)"/>
    <path d="M102.85,149.25a14.7,14.7,0,0,1,.31-2.11,2,2,0,0,0,.15-.79c.88-1.24,2.73-.85,4.17-.73a8.14,8.14,0,0,0,1.91.42,1.38,1.38,0,0,1,1-.19c1.19-.65.42-2.07.47-3.17l-.47-1.16a3.57,3.57,0,0,1-.25-.76,11.25,11.25,0,0,1-.62-1c-.67-1.68-1.9-2.63-3-4-1.9-2.53-4.94-3.94-8-4.93s-6.07.3-8.75,1.25a2.28,2.28,0,0,1-1.49-1.6,7.6,7.6,0,0,1,.72-4,20.87,20.87,0,0,1,1-2.57,27.72,27.72,0,0,0,1.54-6.57,3.39,3.39,0,0,0-2-3,2.09,2.09,0,0,0-2.11.42A5.57,5.57,0,0,1,85,116.9c0,.65.73.23,1,.46.88.15,1.81-.11,2.47.42a6.16,6.16,0,0,1-1.59,3.94,31.35,31.35,0,0,0-3.45,6l-.16-.16.21,9.35c1.18,2,2.73,4.3,5,5.06,1.19,1,2.73,2.19,4.33,1.31.87-.27,1,.95,1.39,1.45.46,1.42-.57,2.41-.67,3.71l-1,2.1c-1.13,2.21-2.16,4.59-3.91,6.46-.57,0-.93.61-1.49.65-.26.42-.88.12-1.29.26-1.13.51-2.83.2-3.61,1.31a.41.41,0,0,0,.26.19c2.32,0,5,.19,7.41.07a.86.86,0,0,0,.57-.72c-.31-.65.16-1.22.41-1.73.21-.91.83-1.48,1.08-2.36.83-1.57,1.7-3.1,2.58-4.67l1.18-1.9a12.26,12.26,0,0,1,1.19-2.15,4,4,0,0,0,.67-1c0-.38-.16-.53-.36-.8.25-.27.66-.19,1-.27a4.43,4.43,0,0,1,2.11,2.53l.36,1,.15.46-.1,1.27.15,1.18a24.72,24.72,0,0,1-.36,5.55c-.61,2.22-3.14,2-5,2.48-.46.31-1.34.16-1.34.92,2.21.46,4.79.19,7.16.15.36-.15.46-.49.62-.84s.61-.92.46-1.45c-.46-.54,0-1.37-.16-2.11a1.74,1.74,0,0,0,0-.72c.31-1.11.21-2.45.41-3.52" transform="translate(-8.58 -103.41)"/>
    <path d="M121.54,147.76c-1.19,1.72-2.47,3.67-4.64,4.28-.15,0-.3.08-.36-.11,1.29-1.38,2-3.52,4-4a1.27,1.27,0,0,1,1-.15" transform="translate(-8.58 -103.41)"/>
    <path d="M17.91,149.64c-.16.14,0,.49-.37.53a.64.64,0,0,1-.82-.35c-.15-.37.21-.76.52-.83.3.14.61.26.67.65" transform="translate(-8.58 -103.41)"/>
    <path d="M28.87,150.17c.1.34-.31.34-.46.42A4.15,4.15,0,0,1,24,149.48c0-.16,0-.31.15-.35,1.55.39,3.4.09,4.69,1" transform="translate(-8.58 -103.41)"/>
    <path d="M20,149.67a1.11,1.11,0,0,1,.05.57.82.82,0,0,1-.93.35,1.12,1.12,0,0,1-.51-.5,1,1,0,0,1,.67-.73,1.28,1.28,0,0,1,.72.31" transform="translate(-8.58 -103.41)"/>
    <path d="M55.59,149.87c0,.33-.26.56-.46.72a.81.81,0,0,1-.83-.31.55.55,0,0,1,.31-.73c.31-.07.82,0,1,.32" transform="translate(-8.58 -103.41)"/>
    <path d="M123,150c.1.39-.21.58-.46.81a.82.82,0,0,1-.73-.12c-.05-.19-.3-.34-.2-.6a.81.81,0,0,1,.87-.46,2,2,0,0,1,.52.37" transform="translate(-8.58 -103.41)"/>
    <path d="M125.5,149.87c.21.33,0,.6-.15.86a.51.51,0,0,1-.67.24c-.26-.24-.57-.34-.57-.69s.31-.53.57-.64.51.23.82.23" transform="translate(-8.58 -103.41)"/>
    <path d="M16.31,151c.05.26-.16.4-.26.63s-.36.23-.61.16a1.07,1.07,0,0,1-.57-.61,1,1,0,0,1,.72-.76,1,1,0,0,1,.72.58" transform="translate(-8.58 -103.41)"/>
    <path d="M96.26,151c.1.14,0,.33,0,.49-.26.3-.51.57-.93.37-.2-.23-.46-.46-.36-.79.31-.42.93-.58,1.24-.07" transform="translate(-8.58 -103.41)"/>
    <path d="M22.44,151.54a.67.67,0,0,1-.52.58c-.36,0-.46-.28-.67-.42,0-.35-.05-.69.31-.88a.69.69,0,0,1,.88.72" transform="translate(-8.58 -103.41)"/>
    <path d="M18.78,151.61a.85.85,0,0,1-.36.85.9.9,0,0,1-1-.53,1.1,1.1,0,0,1,.67-.88c.36,0,.57.38.72.56" transform="translate(-8.58 -103.41)"/>
    <path d="M98.78,151.54a.81.81,0,0,1-.41.92.92.92,0,0,1-1-.53c.16-.32.21-.72.67-.81a.9.9,0,0,1,.77.42" transform="translate(-8.58 -103.41)"/>
    <path d="M20.58,151.7c.11.26-.1.37-.2.57-.16,0-.31.22-.52.15s-.46-.26-.52-.53a.87.87,0,0,1,.52-.74.71.71,0,0,1,.72.55" transform="translate(-8.58 -103.41)"/>
    <path d="M120.92,152a1.4,1.4,0,0,1-.67.62c-.31.07-.46-.2-.72-.32s-.1-.49,0-.69a.79.79,0,0,1,1.44.39" transform="translate(-8.58 -103.41)"/>
    <path d="M123.8,152.16a1,1,0,0,1-.93.65c-.35-.16-.72-.42-.46-.88.16-.16.26-.32.46-.35a.73.73,0,0,1,.93.58" transform="translate(-8.58 -103.41)"/>
    <path d="M105.73,152.42c.21.5-.26.65-.56.88a1.89,1.89,0,0,1-.73-.3,1,1,0,0,1,.57-1,.88.88,0,0,1,.72.42" transform="translate(-8.58 -103.41)"/>
    <path d="M95.33,152.88c.16.07.11.35,0,.46s-.51.53-.87.3a.6.6,0,0,1-.36-.72.71.71,0,0,1,1.18,0" transform="translate(-8.58 -103.41)"/>
    <path d="M97.44,153.15a.51.51,0,0,1-.3.61c-.26.27-.57,0-.83-.12a.57.57,0,0,1,0-.57.83.83,0,0,1,.51-.3c.26.07.57.07.67.38" transform="translate(-8.58 -103.41)"/>
    <path d="M33,153.18c.21.23,0,.51-.1.74a.71.71,0,0,1-.93.18c-.41-.15-.36-.64-.26-1,.21-.07.21-.33.52-.33a1.47,1.47,0,0,1,.77.37" transform="translate(-8.58 -103.41)"/>
    <path d="M109.8,153.34c.1.38-.31.53-.57.61-.46.15-.67-.19-.87-.49,0-.23.26-.39.31-.58.56-.23.87.16,1.13.46" transform="translate(-8.58 -103.41)"/>
    <path d="M107.79,153.34c.1.38-.31.58-.46.76a.75.75,0,0,1-.83-.15c-.15-.12-.15-.35-.15-.57.2-.2.31-.43.57-.5a1,1,0,0,1,.87.46" transform="translate(-8.58 -103.41)"/>
    <path d="M124.88,153.8c.11.53-.61.26-.87.42-1.6.95-3.66.23-5.15-.35.1-.49.67-.3,1-.49,1.65-1,3.29.22,4.94.31" transform="translate(-8.58 -103.41)"/>
    <path d="M21,153.34l-.15.26a6,6,0,0,1-4.89.88l-.16-.22a6.82,6.82,0,0,1,5.1-1" transform="translate(-8.58 -103.41)"/>
    <path d="M113.71,153.6a.81.81,0,0,1-.41.73.75.75,0,0,1-1-.41c-.1-.32.21-.62.52-.74s.72,0,.87.42" transform="translate(-8.58 -103.41)"/>
    <path d="M27.79,153.76c-.16.3-.05.62-.46.76a.79.79,0,0,1-.93-.5c-.16-.42.15-.52.36-.72.47-.23.82.11,1,.46" transform="translate(-8.58 -103.41)"/>
    <path d="M25.11,154c.1.27-.15.42-.2.62a.74.74,0,0,1-.78.11.93.93,0,0,1-.41-.92,2.19,2.19,0,0,1,.62-.42.87.87,0,0,1,.77.61" transform="translate(-8.58 -103.41)"/>
    <path d="M116.34,154.83a.71.71,0,0,1-1.34.31.67.67,0,0,1,.15-.73c.11-.12.36-.12.52-.19a.75.75,0,0,1,.67.61" transform="translate(-8.58 -103.41)"/>
    <path d="M22.28,154.41c.1.3-.15.42-.2.65a5.08,5.08,0,0,1-.83,1.64c-.72.88-1.75.88-2.78,1.15l-.15-.3a10.49,10.49,0,0,1,3.86-3.22" transform="translate(-8.58 -103.41)"/>
    <path d="M114.43,155.26c.11.46-.31.53-.56.72a.78.78,0,0,1-.72-.46c-.16-.42.25-.58.46-.77a.75.75,0,0,1,.82.51" transform="translate(-8.58 -103.41)"/>
    <path d="M26.66,155.26c-.05.07.05.14.1.18-.05.42-.36.54-.57.73a1,1,0,0,1-.82-.38.64.64,0,0,1,.36-.88c.36,0,.82,0,.93.35" transform="translate(-8.58 -103.41)"/>
    <path d="M121.43,156.4c.36,0,.47-.49.88-.58a1,1,0,0,1,.93.42c.15.46-.21.69-.52.88s-.82-.22-.77.27a1.22,1.22,0,0,1,.51.77c-.1.15-.36.11-.46,0a4.92,4.92,0,0,1-2.73-2.38c-.15-.33-.87-.61-.46-.91a3.44,3.44,0,0,1,2.62,1.49" transform="translate(-8.58 -103.41)"/>
    <path d="M125.09,155.21a.65.65,0,0,1,0,.73c-.21.38-.77.23-1.08.2-.21-.2-.41-.39-.31-.7a1.29,1.29,0,0,1,.56-.5,1.16,1.16,0,0,1,.88.27" transform="translate(-8.58 -103.41)"/>
    <path d="M111.29,157.28a5.09,5.09,0,0,1,.83,1.53c-.06.11-.26.08-.31.08-1.29-.73-3-1.54-3.45-3.07-.16-.14-.47-.33-.42-.61a3.61,3.61,0,0,1,2.63,1.07c.26.39.57.58.72,1" transform="translate(-8.58 -103.41)"/>
    <path d="M24.55,155.82c.15.35-.16.62-.37.78a.88.88,0,0,1-.87-.32c-.26-.42.21-.76.52-.92s.51.27.72.46" transform="translate(-8.58 -103.41)"/>
    <path d="M116,156.7c0,.23-.26.39-.36.55-.31,0-.62.14-.88-.13-.1-.19-.25-.49-.05-.68.41-.53,1-.12,1.29.26" transform="translate(-8.58 -103.41)"/>
    <path d="M125.5,157.25a1,1,0,0,1-.51.95,1,1,0,0,1-.93-.35c-.21-.23,0-.46,0-.72a.93.93,0,0,1,1-.27,1.77,1.77,0,0,1,.46.39" transform="translate(-8.58 -103.41)"/>
    <path d="M99.25,162.51c0,.46-.88.35-1.19.69a8,8,0,0,1-4,.58v-.23a5.77,5.77,0,0,1,5.2-1" transform="translate(-8.58 -103.41)"/>
    <path d="M43.85,164.15a.79.79,0,0,1-.56.66.76.76,0,0,1-.67-.38c-.16-.46.25-.65.51-.84a1,1,0,0,1,.72.56" transform="translate(-8.58 -103.41)"/>
    <path d="M98.58,164.58a.79.79,0,0,1-1.4.61c-.2-.15-.1-.42-.1-.61a.8.8,0,0,1,1.5,0" transform="translate(-8.58 -103.41)"/>
    <path d="M106.14,164.73a6.18,6.18,0,0,1-3.29,1.34l-2,0-.21-.16c1.24-1.53,3.51-1.53,5.51-1.38" transform="translate(-8.58 -103.41)"/>
    <path d="M33.45,165.65a.69.69,0,0,1-1.29.39.68.68,0,0,1,.32-.88c.41-.27.82.19,1,.49" transform="translate(-8.58 -103.41)"/>
    <path d="M35.36,166c.1.19-.11.3-.16.49-.26.12-.56.19-.72,0a.52.52,0,0,1-.26-.65c.16-.23.36-.19.47-.35.25.12.56.24.67.51" transform="translate(-8.58 -103.41)"/>
    <path d="M20.79,169.9c-.36.45-1-.13-1.39-.35-1.34-.77-1.29-2.26-2.63-3.14.16-.46.52.05.77,0a3.9,3.9,0,0,0,.78.43c1.28.72,1.59,1.95,2.47,3.1" transform="translate(-8.58 -103.41)"/>
    <path d="M71.09,169.17c-.16.46-.47.84-.42,1.34l-.15.07c.1-.57-.47-.91-.31-1.53a13.83,13.83,0,0,1-.57-1.53c-.3-.61.31-.87.57-1.29.57.23.72.72,1.13,1.18.21.65-.25,1.15-.25,1.76m60.38-14.11a3.06,3.06,0,0,0-2.88-1.56,2.58,2.58,0,0,0-2.11,1.56,2,2,0,0,0,.72,2.1A.58.58,0,0,0,128,157c.16-.5-.36-.5-.41-.88a1.21,1.21,0,0,1,.41-1.34c.36-.38,1-.18,1.5-.18a3.08,3.08,0,0,1,1.13,1.11,3.48,3.48,0,0,1,0,2,3.41,3.41,0,0,1-2.37,1.91c-3.14.46-37.74.3-37.74.3-4.06.39-8.7-.76-12.2,1.39-1.59.76-2.37,2.52-2.78,4.09a30.22,30.22,0,0,0-3,3l-.1-.11c.2-.92.61-1.72.82-2.64.56-.76.56-1.8,1-2.64,1.44-2.33,2.78-4.7,5-6.34.93-1.27,2.63-1,4.07-1a9.72,9.72,0,0,0,5.25.77.28.28,0,0,0,.1-.26c-.51-.51-1.39-.7-2-1.2-1.49-.72-2.93.23-4.52.12-.11-.08-.16-.12-.11-.23a22.33,22.33,0,0,1,4.69-2.53,34,34,0,0,1,4.12-1.64c.56,0,1.13-.49,1.64-.15l2-.54c.1,0,.15.16.31.13,1.7-.58,3.86,0,5.81-.09l.26.23,1.8.46c.73.08,1,.88,1.75.91.37-.53-.41-.75-.61-1.1a4.12,4.12,0,0,1,2.52.38l-.36.42c-.26.42.1.73.46.88s.46-.12.62-.19c.52-.34,0-.69.1-1a37.28,37.28,0,0,1,8.14,2.29,6.65,6.65,0,0,0,2.16.73,9.85,9.85,0,0,0-2.88-1.54c-.62-.37-1.55-.42-2.06-1,.15-.19.41-.11.51-.26a5.71,5.71,0,0,0,3.3-2.15c.1-.23.51-.14.46-.46-.36-.37-.93.12-1.39.09-1.54.3-2.26,2.17-3.86,2.52-1.91-.46-3.91-.92-5.82-1.41a11.71,11.71,0,0,1-2.88-.62l-2.11-.19H96.88c0-.07-.16-.12-.11-.23,1.34-.35,2.53-1.15,3.92-1.5l10.14-4.65a24.39,24.39,0,0,0,2.88-3.15.71.71,0,0,0-.41-.72.66.66,0,0,0-.77.16c-.41.33,0,.76,0,1.18a5.84,5.84,0,0,1-1.7,1.49c-.16,0-10.5,4.7-10.5,4.7a25.18,25.18,0,0,1-4.64,1.73l-2.21.34a1.45,1.45,0,0,1-.93.88,9.33,9.33,0,0,1-1.75.49c-4.94,1.92-10,3.94-14,7.84a4.94,4.94,0,0,0,.36-1.61,3.13,3.13,0,0,0-.41-1.68,2.7,2.7,0,0,1-.31-1l-.51.35a5.09,5.09,0,0,0-.31,3.26c.1.68.67,1.49.15,2.1-1.85,2.21-2.88,4.89-4.06,7.41-.47-.07-.67-.49-.88-.92a12.46,12.46,0,0,0,2.68-5.58c.25-.18.1-.69.36-.91-.11-.61.31-1.22,0-1.72.2-.84-1.13-1.6-.26-2.14l-.72.34c-1.65,2.14.82,5.36-1,7.42v.15c-.52.7-.77,1.38-1.49,1.84-.93-.39-1.29-1.42-1.8-2.18a3.47,3.47,0,0,1-.36-3.56c.36-1.11-.21-2.06-.31-3.06l-.42-.23a4.51,4.51,0,0,0-.51,4.47c.36.69.41,1.66,1,2.22a13.12,13.12,0,0,0,1.65,2.84c.15.38-.21.45-.42.65-.41-.27-.36-.88-.72-1.15a27.68,27.68,0,0,0-4.84-7c-.1-.33-.46-.63-.25-1A2.86,2.86,0,0,0,64,154c-.1-.19-.31-.42-.26-.61l-.61-.46c.1,1.34-.78,2.52-.42,3.94v.08a72.31,72.31,0,0,0-12.61-7.64l-.36,1a25.59,25.59,0,0,1,4.07,2.07,28.58,28.58,0,0,1,3.81,2c5.15,2.87,8.54,7.62,10.86,12.89.05.42.46.88.15,1.3a17.63,17.63,0,0,0-2.88-2.91,5.46,5.46,0,0,0-2.88-4.24c-.57-.85-1.75-.92-2.73-1.18l-13.8-.09c-11.22-.14-21.52.35-32.64.16-1.59-.16-3.45-.69-3.91-2.33a2.51,2.51,0,0,1,0-2.11,2.3,2.3,0,0,1,1.9-1A1.93,1.93,0,0,1,13,155.86c0,.51-.41,1-.56,1.39,0,.14.15.45.41.33a1.91,1.91,0,0,0,1-1.21c0-.28.15-.66-.16-.85A2.45,2.45,0,0,0,11.93,154a3.11,3.11,0,0,0-2.57.88c-.93.76-.88,2.14-.62,3.21a5.1,5.1,0,0,0,4.07,3.06l37,.15c3.61.19,7.67-.41,11.33.31a4.33,4.33,0,0,1,3,2.91c0,.07-.15,0-.25,0a16.46,16.46,0,0,0-10.76-2.22,13.22,13.22,0,0,0-4.27.89,2.18,2.18,0,0,1-1.86-.62c-1.33-1.22-3.76-1.14-5.51-.69,0,.13,0,.23.05.27,1.86-.14,2.94,1.46,4.64,1.65.36.07.67-.35,1,0a35.71,35.71,0,0,1-5.3,2.36c-.57-.11-.88-.65-1.34-1-.72-.81-2-.46-3-.55-.31.09-.62-.14-.82,0a3,3,0,0,0,1.59,1.27c1,.42,2.06,0,2.94.53-.21.28-.52.35-.83.54-1.75.69-3.24,2.29-5.2,2.18a6.69,6.69,0,0,1-5.61-1.84,3.86,3.86,0,0,0-3.86-2.22c-.1.09-.26.09-.21.28.83.49,1.45,1.48,2.32,2.06.52.65,1.55,0,2.06.72a6.73,6.73,0,0,0,2.42,1.08,12.11,12.11,0,0,0,2,.53l-.26.16A32.6,32.6,0,0,1,22.74,171c-1.13,0-2.26-.38-3.39-.35a2.2,2.2,0,0,0,.92.55,2.46,2.46,0,0,1-1,.3,7.14,7.14,0,0,0-1.44.38,4.08,4.08,0,0,0-1.65.39A7,7,0,0,1,14,174c0,.16,0,.38.16.38.72-.3,1.65-.07,2.36-.38,1.24-.11,2-1.48,3-2.07,1-.84,2.58-.64,3.86-.45.72.19-.1.49.16,1,.3.26.56.57,1,.46a.57.57,0,0,1,.26-.2.89.89,0,0,0,.05-.95c.52-.35,1.24,0,1.81-.19,1.44-.05,2.88-.35,4.27-.39.26,0,.51-.26.72,0-.1.3-.46.34-.31.75s.46.5.77.59c.36-.16.72-.43.57-.92-.11-.28-.41-.31-.57-.42.78-.39,1.7-.5,2.47-.89a6,6,0,0,0,1.6-.54c.51,0,.93-.49,1.39-.3a8,8,0,0,1-.82,1.84c-.62,2-1,4.7,0,6.65.1,0,.15,0,.25-.07a9.07,9.07,0,0,1,.31-6.27c.57-3.26,3.92-4.21,6.28-5.44l.11.16c-.62,1.69-1.6,3.29-1.44,5.31.1.34-.16.69,0,.92a3.71,3.71,0,0,0,1.38-1.76c.31-1.72-.72-3.86,1-5.12,3.14-1.22,6.08-2.83,9.68-2.87.1.12.36-.08.41.15-.77.85-1.85,1.64-2.21,2.68-1.23,1.69-1.18,4.55-.67,6.62.36,1.18-.67,1.83-1.13,2.75-.26.32-.31.88-.57,1.25l.78.09a4,4,0,0,0,1.28-2.54,1.1,1.1,0,0,0,.72.78c.26-.42-.2-.73-.25-1.15.61-.35.87.42,1.33.57a10.38,10.38,0,0,0,2.32.54l.31-.26c-.88-1.31-2.52-1.54-4-1.62a7.17,7.17,0,0,1-.67-4.35,7.45,7.45,0,0,1,.72-2.38,5.83,5.83,0,0,1,1.08-1.45,5.25,5.25,0,0,1,2.37-1.3h.15v.12c-1,.8-1.13,1.91-1.7,2.91a3.11,3.11,0,0,0-.36,3.32c.21.5.1,1.26.62,1.61a7.86,7.86,0,0,0,.82-2.34c-.1-1.25-.87-2.45-.15-3.66a3.1,3.1,0,0,1,2.06-1.69c2.06-.2,3.91.88,5.71,1.69.41.26,1,.49,1.13,1a3.14,3.14,0,0,1-4.89,2.53,2.76,2.76,0,0,1-.61-2.34,1.6,1.6,0,0,1,1.7-.6c.36.18.71.57,1.18.34a.44.44,0,0,0,.15-.62c-.41-.23-.56-.79-1.13-.88a2.42,2.42,0,0,0-2.06.42,2.6,2.6,0,0,0-.87,2.68,3.26,3.26,0,0,0,2.31,2.45,4.42,4.42,0,0,0,4.69-1.6,5,5,0,0,0,.82-1.65,9.82,9.82,0,0,1,3.91,5,8.38,8.38,0,0,1,.06,1.92L71,174a1.35,1.35,0,0,1,.11-.91,11.58,11.58,0,0,1,3.91-6.27c.62-.39.51.49.62.77a5.23,5.23,0,0,0,3.34,2.9,4.1,4.1,0,0,0,4.07-1.34c.51-.92,1.13-2.26.26-3.21a2.54,2.54,0,0,0-2.06-1,2.64,2.64,0,0,0-2.11,1.41c0,.31,0,.65.26.8s.46,0,.56-.19c.05-.58.57-.84,1-1.14a1.11,1.11,0,0,1,1.18.23,2,2,0,0,1,.57,1.48,2.31,2.31,0,0,1-1.29,1.8,3.75,3.75,0,0,1-3.6-.34,9.37,9.37,0,0,1-1.08-1.69,2.6,2.6,0,0,1,0-1.76,12.85,12.85,0,0,1,5.4-1.91,3.68,3.68,0,0,1,2,1.27c1.75,1.8-.36,4.35.88,6.34.41-.07.41-.69.62-1.07.56-1.37-.16-2.87-.47-4.21a8,8,0,0,0-1.44-2.25.77.77,0,0,1,.41-.08,8.44,8.44,0,0,1,2.32,2A10,10,0,0,1,88,171.88c-.31,1.15-1.49,1.68-2.47,2.1a4.23,4.23,0,0,0-1,1.23c.47.27,1.13,0,1.6-.19.72-.27,1.13-1.2,1.59-1.61.11,0,.06.15.11.23,0,.43-.21,1,.15,1.11a10.24,10.24,0,0,0,.36-1.95,3.52,3.52,0,0,1,.72,1.91c.36.69.93,1.61,1.81,1.72.25-.34,0-.69-.11-1-.1-1-.88-1.46-1.44-2.14-1.34-1.84-.72-4.71-1.75-6.77a7.68,7.68,0,0,0-2.06-2.83l.15-.15a22.26,22.26,0,0,1,5.15.92c2.11,1,5.1.79,6.13,3.51a9.72,9.72,0,0,0,2.16,4.13l.1-.07a1.68,1.68,0,0,0,0-1.42c-.25-1.91-1.9-2.36-2.78-4l.11-.16a27.84,27.84,0,0,1,2.78.88c3,.84,5.14,3.83,5.56,6.93a14.67,14.67,0,0,1-1.44,6.53c-.11.3-.62.65-.26.92.41-.31.46-.81.72-1.15a10.88,10.88,0,0,0,1.23-7.68c0-.51-.61-.88-.36-1.38a1.27,1.27,0,0,0,.67.34c.21-.15.57-.15.72-.42s.21-.49,0-.69a1.05,1.05,0,0,0-1.13-.26,1.76,1.76,0,0,0-.41.83,8.77,8.77,0,0,0-1.39-2l.1-.11c1.7.56,3.25,1.41,5,1.87a2.36,2.36,0,0,0,1.33.42,33.53,33.53,0,0,0,4.64,1.18c1.13-.11,2.11.42,3.24.16v-.08l0,0c-.41-.53-1.29,0-1.8-.42a28.13,28.13,0,0,1-7.47-1.87c0-.12.16-.09.31-.09a1,1,0,0,0,.57-.95,1,1,0,0,0-.88-.42,1.24,1.24,0,0,0-.56.65,1,1,0,0,0,.56.72c0,.09-.2.05-.31.05-1.18-.54-2.31-1-3.45-1.57-.41-.08-.77-.42-1.18-.5-.87-.42-1.75-.83-2.63-1.18a57.08,57.08,0,0,0-7.72-2.87c-.56-.15-1.08-.3-1.59-.46-1-.27-1.91-.49-2.89-.76-3.19-.81-7.56-.88-10.34.88-.47-.16-.72.57-.93.11.77-2.1,3.09-2.79,5.2-2.87,15.19-.15,29.45-.27,44.48-.5a4.69,4.69,0,0,0,4.32-2.17,3.85,3.85,0,0,0,.31-3.52" transform="translate(-8.58 -103.41)"/>
    <path d="M112.27,166.76c0,.11.26.16.15.35a8,8,0,0,1-5.09,1.6c-.16,0-.26.15-.46.11s-.16-.19-.11-.26a5.8,5.8,0,0,1,5.51-1.8" transform="translate(-8.58 -103.41)"/>
    <path d="M106.2,167.37c.15.53-.21.84-.62,1a1,1,0,0,1-.83-.6c-.15-.32.16-.46.26-.66a.73.73,0,0,1,1.19.23" transform="translate(-8.58 -103.41)"/>
    <path d="M34,167.45a.8.8,0,0,1-.21.81.75.75,0,0,1-.67.18c-.25,0-.41-.34-.51-.57s.21-.53.51-.73a.92.92,0,0,1,.88.31" transform="translate(-8.58 -103.41)"/>
    <path d="M27.22,169.93v.26a2.93,2.93,0,0,1-2.47-.56,5,5,0,0,0-2-1.92c0-.11-.25-.26,0-.34,1.91,0,3,1.54,4.48,2.56" transform="translate(-8.58 -103.41)"/>
    <path d="M118,167.41c-.88,1.3-1.6,2.9-3.2,3.47-.25,0-.46.39-.72.12a7,7,0,0,1,3.4-3.63,1.31,1.31,0,0,1,.52,0" transform="translate(-8.58 -103.41)"/>
    <path d="M36.23,167.87c0,.42-.26.49-.56.72-.31,0-.42-.19-.62-.42s.2-.53.36-.72a.81.81,0,0,1,.82.42" transform="translate(-8.58 -103.41)"/>
    <path d="M122.82,168.1c-.3.49-.15,1.22-.51,1.76-.77.88-1.39,1.87-2.63,2.06-.2-.39.26-.76.47-1.11a5.3,5.3,0,0,1,2.52-2.94" transform="translate(-8.58 -103.41)"/>
    <path d="M15.43,168.44a.64.64,0,0,1,0,.84.91.91,0,0,1-.87.16.83.83,0,0,1-.31-.92c.26-.35.93-.54,1.18-.08" transform="translate(-8.58 -103.41)"/>
    <path d="M13.27,168.9a2.09,2.09,0,0,1,.16.54c-.16.19-.31.42-.57.46a.82.82,0,0,1-.87-.5.83.83,0,0,1,.41-.81.72.72,0,0,1,.87.31" transform="translate(-8.58 -103.41)"/>
    <path d="M17.75,169.13c.1.31.16.84-.31.92s-.82-.15-1.13-.46a.9.9,0,0,1,.46-.77,1,1,0,0,1,1,.31" transform="translate(-8.58 -103.41)"/>
    <path d="M24,169.63c-.05.26.05.65-.26.72a.77.77,0,0,1-.72.07c-.05-.23-.51-.4-.26-.68a1.61,1.61,0,0,1,.52-.42c.26.12.56,0,.72.31" transform="translate(-8.58 -103.41)"/>
    <path d="M126.48,169.9c-.11.26-.26.61-.57.61a1,1,0,0,1-.87-.42c-.16-.42.2-.65.51-.77s.88.15.93.58" transform="translate(-8.58 -103.41)"/>
    <path d="M119.53,170.09c0,.3-.31.53-.46.65a1,1,0,0,1-1.19-.58,1.09,1.09,0,0,1,.67-.69,1,1,0,0,1,1,.62" transform="translate(-8.58 -103.41)"/>
    <path d="M124.27,170a.75.75,0,0,1-.36.63.9.9,0,0,1-.93-.14c-.31-.31,0-.58.15-.81.36-.19,1-.16,1.14.32" transform="translate(-8.58 -103.41)"/>
    <path d="M14.45,170.65a.76.76,0,0,1-.46,1,.86.86,0,0,1-.82-.54.75.75,0,0,1,.36-.8.84.84,0,0,1,.92.37" transform="translate(-8.58 -103.41)"/>
    <path d="M117.62,171.08a.85.85,0,0,1-.51,1,.78.78,0,0,1-.72-.27c-.16-.19-.36-.61,0-.81a.73.73,0,0,1,1.28.08" transform="translate(-8.58 -103.41)"/>
    <path d="M34.89,171.5c.16.42-.31.49-.41.72s-.46.12-.56,0-.42-.45-.31-.79a1.32,1.32,0,0,1,.46-.39c.41-.12.57.27.82.5" transform="translate(-8.58 -103.41)"/>
    <path d="M125.81,171.76c0,.28-.15.39-.21.58a1,1,0,0,1-.87.16c-.36-.19-.36-.51-.36-.85.26-.15.31-.34.57-.42a.9.9,0,0,1,.87.53" transform="translate(-8.58 -103.41)"/>
    <path d="M123.44,171.88c.16.46-.26.69-.56.8s-.37-.07-.42.16a10.44,10.44,0,0,1,2.37,2v.31a5.09,5.09,0,0,1-3.76-1.45c-.3-.2-.72-.2-1-.46.47-.5,1.4-.3,2.06-.34.52-.54-.56-.93.11-1.38.2,0,.36-.27.67-.2a1.45,1.45,0,0,1,.56.54" transform="translate(-8.58 -103.41)"/>
    <path d="M107.89,171.92c.11.19-.1.42-.15.62a.75.75,0,0,1-.82.14c-.21-.27-.52-.5-.42-.87.31-.58,1.29-.47,1.39.11" transform="translate(-8.58 -103.41)"/>
    <path d="M23.05,173.26a.72.72,0,0,1-.67.61.73.73,0,0,1-.66-.45c-.06-.27.15-.43.2-.62.41-.35,1.18-.12,1.13.46" transform="translate(-8.58 -103.41)"/>
    <path d="M26.14,172.76c0,.54-.62.85-.77,1.38a3.88,3.88,0,0,1-3,2.52c-.15-.34.46-.76.62-1.11a8.16,8.16,0,0,1,2.93-2.79" transform="translate(-8.58 -103.41)"/>
    <path d="M107,173.3c0,.42-.36.72-.67.87s-.62-.15-.77-.3c-.31-.31-.1-.61,0-.91.41-.46,1.08-.09,1.39.34" transform="translate(-8.58 -103.41)"/>
    <path d="M109.39,173.56a.94.94,0,0,1-.72.84c-.06-.1-.26,0-.36-.07a.88.88,0,0,1-.52-.69c.21-.19.26-.49.57-.54s.87,0,1,.46" transform="translate(-8.58 -103.41)"/>
    <path d="M32,173.52c.05.43-.26.65-.56.81a.73.73,0,0,1-.73-.46c-.1-.35.26-.57.47-.77.41-.14.56.2.82.42" transform="translate(-8.58 -103.41)"/>
    <path d="M34.64,173.68a1,1,0,0,1-.72.65,1.08,1.08,0,0,1-.73-.46c0-.38.31-.58.57-.77a.85.85,0,0,1,.88.58" transform="translate(-8.58 -103.41)"/>
    <path d="M117.52,176.36c.21.14.52.33.47.61-.62.27-1.09-.42-1.71-.54a8.07,8.07,0,0,1-2-3.05c.36-.35.72.07,1,.18a7.67,7.67,0,0,1,2.16,2.8" transform="translate(-8.58 -103.41)"/>
    <path d="M118.91,173.68a.8.8,0,0,1,0,.84c-.26.38-.72.31-1.08.23-.16-.23-.52-.54-.31-.88s.46-.38.72-.49.46.18.72.3" transform="translate(-8.58 -103.41)"/>
    <path d="M38.14,174.67c0,.31.1.77-.31,1a.71.71,0,0,1-.88-.46c-.2-.46.21-.54.47-.76s.46.07.72.26" transform="translate(-8.58 -103.41)"/>
    <path d="M109.23,177.15a5.08,5.08,0,0,1,1,2.73c-.1.26.21.53,0,.72h-.15c-1.7-1.23-2.12-2.94-2.73-4.66a.31.31,0,0,1-.16-.39c.37-.34.62.35,1,.46" transform="translate(-8.58 -103.41)"/>
    <path d="M43,175.86s0,.08,0,.08c-1.49,1.07-3.66,1.72-5.41.68a.33.33,0,0,1,.21-.34,8.06,8.06,0,0,1,3.35-.73" transform="translate(-8.58 -103.41)"/>
    <path d="M34.38,176c-1.29.81-2.47,2.38-4.07,2.76-.31.11-.46.54-.87.31.72-2.07,2.93-3.17,4.94-3.37" transform="translate(-8.58 -103.41)"/>
    <path d="M107,177.77a.63.63,0,0,1-.31.81.52.52,0,0,1-.72,0c-.36-.16-.36-.5-.36-.78s.41-.3.57-.42c.36.09.61.09.82.39" transform="translate(-8.58 -103.41)"/>
    <path d="M103.88,178a2.16,2.16,0,0,1-1.39,1c-1.29.47-2.47-.14-3.61-.46.06-.3.42-.18.62-.37a8.23,8.23,0,0,1,3.86-.2.44.44,0,0,1,.52,0" transform="translate(-8.58 -103.41)"/>
    <path d="M34.38,179.07c-.11.16-.16.49-.46.62a.73.73,0,0,1-.72-.16c-.11-.23-.36-.42-.16-.69s.36-.35.62-.42a.75.75,0,0,1,.72.65" transform="translate(-8.58 -103.41)"/>
    <path d="M36.64,179.42a1.36,1.36,0,0,1-.56.72.79.79,0,0,1-.72-.26c-.11-.24-.26-.51-.11-.77s.31-.23.52-.34.72.34.87.65" transform="translate(-8.58 -103.41)"/>
    <path d="M106.3,179.79a.92.92,0,0,1-.26.73.66.66,0,0,1-.87.15c-.26,0-.31-.33-.42-.53s.16-.5.26-.77a.84.84,0,0,1,1.29.42" transform="translate(-8.58 -103.41)"/>
    <path d="M108,179.72c0,.19.15.39.1.53-.26.19-.41.69-.88.5-.2.08-.3-.23-.41-.31-.15-.38-.05-.95.41-1s.62.18.78.3" transform="translate(-8.58 -103.41)"/>
    <path d="M35.25,180.83a1,1,0,0,1-.35,1c-.42.08-1,.08-1.14-.41,0-.39,0-.88.47-1.11a.85.85,0,0,1,1,.49" transform="translate(-8.58 -103.41)"/>
    <path d="M37.42,180.67a3.47,3.47,0,0,1-1.34,3c-.62.12-1.24.7-1.86.32v-.2c.83-1.14,2.27-2,3.2-3.1" transform="translate(-8.58 -103.41)"/>
    <path d="M100.33,181.55c.15.23-.11.43-.21.62-.26.26-.67.14-.93,0s-.3-.49-.2-.76a.88.88,0,0,1,.51-.42c.31,0,.62.27.83.53" transform="translate(-8.58 -103.41)"/>
    <path d="M41.22,183.31c.52.89.21,2.07.52,3-.62.08-.87-.65-1.34-1-.82-1.14-.67-2.67-1.08-4,.1-.12.21-.12.26-.07a8.84,8.84,0,0,1,1.44,1.6c-.05.26.26.26.2.49" transform="translate(-8.58 -103.41)"/>
    <path d="M102.23,181.86c0,.31-.36.38-.51.57a1.14,1.14,0,0,1-.72-.34c-.16-.38.15-.5.36-.69a.63.63,0,0,1,.87.46" transform="translate(-8.58 -103.41)"/>
    <path d="M106.76,185.27c0,.11-.05.34-.26.26h-.15c-1.08-1-2.21-2.11-2.06-3.63l.26,0c1,.88,2.16,1.84,2.21,3.41" transform="translate(-8.58 -103.41)"/>
    <path d="M103.88,184a.91.91,0,0,1-.31.72c-.41.12-1.08.09-1.13-.49,0-.39.36-.57.57-.76.41-.12.71.19.87.53" transform="translate(-8.58 -103.41)"/>
    <path d="M101.41,184.85c-.57,1.41-2,2.13-3,3.2-.21-.1-.1-.42,0-.57a5.23,5.23,0,0,1,2.88-3.44c.62.07,0,.49.16.81" transform="translate(-8.58 -103.41)"/>
    <path d="M104.24,186c0,.34-.36.5-.52.69a1.28,1.28,0,0,1-.87-.42c0-.39.31-.5.51-.69a.81.81,0,0,1,.88.42" transform="translate(-8.58 -103.41)"/>
    <path d="M76,116.88h-.41c-1.09,0-.16,1.33.41,1.33.77,0,.82-1.33,0-1.33m-3.4,1.33c1.13,0,.05-1.33-.52-1.33H71c-1.13,0-.1,1.33.52,1.33Zm-4.58,0c1.08,0,0-1.33-.57-1.33H66.4c-1.08,0-.05,1.33.52,1.33ZM76,116.59a.94.94,0,1,1,0,1.88H64.75a.94.94,0,1,1,0-1.88Z" transform="translate(-8.58 -103.41)"/>
    <path d="M76.08,134c0,.5.67.16,1.13.16s1.19.34,1.19-.16c0-.71-.67-.45-1.19-.45s-1.13-.26-1.13.45m2.11,1.17c.46,0,.51-.66.51-1.24,0-1.3-1,0-1.54-1.23-.41,1-1.44.09-1.44,1.2,0,.77,0,1.27.72,1.27ZM75,129.5l2.16.82,2.11-.82-.82,3.16,1.64-.35-.56,1.92.56,1.84-1.49-.4.67,3.42-2.11-.83-2.16.83.87-3.42-1.7.49.47-1.93-.47-1.84,1.65.27Z" transform="translate(-8.58 -103.41)"/>
    <polyline points="61.37 30.75 61.37 30.34 61.01 30.28 61.32 29.98 61.12 29.66 61.53 29.7 61.73 29.3 61.94 29.69 62.3 29.66 62.15 29.98 62.45 30.28 62.09 30.34 62.09 30.75 61.73 30.49"/>
    <polyline points="59.73 32.9 59.73 32.5 59.37 32.42 59.62 32.13 59.47 31.81 59.83 31.85 60.09 31.46 60.29 31.85 60.65 31.81 60.5 32.13 60.76 32.42 60.4 32.5 60.4 32.9 60.09 32.64"/>
    <polyline points="62.56 32.62 62.56 32.22 62.2 32.15 62.45 31.86 62.3 31.53 62.66 31.57 62.92 31.18 63.12 31.57 63.48 31.53 63.33 31.86 63.59 32.15 63.23 32.22 63.23 32.62 62.92 32.36"/>
    <polyline points="62.87 34.23 62.87 34 62.66 33.96 62.87 33.8 62.76 33.62 62.97 33.63 63.07 33.41 63.23 33.63 63.43 33.62 63.33 33.8 63.48 33.96 63.28 34 63.28 34.23 63.07 34.09"/>
    <polyline points="60.24 36.06 60.24 35.38 59.62 35.26 60.14 34.75 59.83 34.2 60.45 34.27 60.86 33.59 61.22 34.26 61.84 34.2 61.58 34.75 62.04 35.26 61.42 35.38 61.42 36.06 60.86 35.63"/>
    <polyline points="61.58 0 62.92 3.29 66.31 2.29 64.62 5.39 67.5 7.44 64 8.02 64.21 11.56 61.58 9.19 58.95 11.56 59.21 8.02 55.71 7.44 58.59 5.39 56.9 2.29 60.24 3.29"/>
    <path d="M57.91,177.14c-.36.15-.52.26-.42.68l.47,2a1.71,1.71,0,0,1-.16,1.32,2.47,2.47,0,0,1-1.34.81,2.77,2.77,0,0,1-1.64,0,1.23,1.23,0,0,1-.78-1l-.51-2.11c-.1-.54-.31-.5-.77-.44v-.15l2.52-.61,0,.16c-.51.13-.72.19-.62.74l.52,2.12c.1.36.31,1.24,1.39,1a1.22,1.22,0,0,0,1-1.69L57.13,178c-.05-.39-.2-.58-.87-.45v-.17l1.65-.4" transform="translate(-8.58 -103.41)"/>
    <path d="M61.71,177.56a1.65,1.65,0,0,0-1.75-.84c-.41.08-.77.36-.66.78s.25.45.92.57l1.24.22a1.39,1.39,0,0,1,1.08,1c.1.55-.21,1.42-1.6,1.73a5.79,5.79,0,0,1-1.33.07c-.16,0-.16.16-.16.27l-.26.05-.3-1.57.2-.05a1.59,1.59,0,0,0,1.85,1c.88-.2.77-.83.77-.91-.1-.42-.46-.5-1-.59l-.52-.09c-1.44-.23-1.54-.78-1.59-1.07s-.06-1.3,1.38-1.61a5.94,5.94,0,0,1,1.24-.06c.16,0,.16-.15.21-.27l.2-.05.31,1.38" transform="translate(-8.58 -103.41)"/>
    <path d="M66.71,180.06l-2.73.26,0-.15c.56-.1.77-.14.72-.68l-.36-3.4c-.52.07-1.29.18-1.34,1.23l-.26,0-.1-1.31,4.63-.44.16,1.3-.26,0c-.2-1-1-1-1.54-.95l.31,3.4c0,.56.26.56.82.53" transform="translate(-8.58 -103.41)"/>
    <path d="M69.8,177.76c1,0,1.44-.12,1.44-1a.83.83,0,0,0-.93-1c-.41,0-.46.07-.46.26m3.29,4-1.59,0L70,178h-.2l0,1.28c0,.52.15.54.66.6V180l-2.57,0v-.16c.52,0,.67-.07.67-.58l0-2.89c0-.55-.2-.56-.67-.6v-.17l2.52.05c.52,0,2.17.1,2.17,1.19,0,.8-.83,1-1.24,1.09l1.5,1.88a.34.34,0,0,0,.3.13Z" transform="translate(-8.58 -103.41)"/>
    <path d="M76.08,178.9l-.57-1.66-.92,1.47m3.65,2-2.52-.31,0-.16c.46,0,.62,0,.62-.17a3.15,3.15,0,0,0-.21-.9L74.43,179c-.26.43-.41.69-.46.78,0,.26.36.32.62.36v.16l-1.6-.19.05-.16c.41,0,.57-.2.83-.66L76,175.92l.2,0,1.29,3.6c.26.74.36,1,.72,1Z" transform="translate(-8.58 -103.41)"/>
    <path d="M82.72,181.63l-4.38-.81v-.16c.47,0,.67.06.78-.34l.56-3.08c0-.43-.25-.5-.61-.58l.05-.16,2.67.48-.05.17c-.51-.08-.77-.12-.87.45l-.57,3c0,.32.1.39.62.49a1.88,1.88,0,0,0,2.16-.9l.21,0" transform="translate(-8.58 -103.41)"/>
    <path d="M85.65,182.29,83,181.72v-.15c.41.06.72.09.82-.3l.62-3.08c.1-.42-.26-.51-.62-.6l.05-.16,2.63.56v.15c-.36-.06-.72-.13-.82.3l-.62,3.08c-.1.41.2.49.62.6" transform="translate(-8.58 -103.41)"/>
    <path d="M88.85,181.21l-.62-1.66-.88,1.5M91.06,183l-2.52-.27v-.15c.51,0,.61,0,.67-.2a8.42,8.42,0,0,0-.26-.89l-1.75-.18a3.29,3.29,0,0,0-.41.8c-.05.25.31.31.62.34l-.06.16-1.54-.16v-.16c.41,0,.57-.22.82-.68l2.11-3.36.21,0,1.34,3.58c.31.73.41,1,.77,1Z" transform="translate(-8.58 -103.41)"/>
    <path d="M69.9,130.84c-.46,0-1.08.32-1.08-.22,0-.77.52-.6,1-.6s1.18-.17,1.18.6c0,.54-.61.22-1.08.22m1.34-.29c0-1.57-.87-.11-1.34-1.44-.36,1.14-1.44.19-1.44,1.39a1,1,0,0,0,.36.88v.46a.22.22,0,0,0,.2.22h1.65a.23.23,0,0,0,.26-.22v-.49a1.22,1.22,0,0,0,.31-.8" transform="translate(-8.58 -103.41)"/>
    <path d="M84.83,149.7a.64.64,0,1,0-.72-.63.67.67,0,0,0,.72.63" transform="translate(-8.58 -103.41)"/>
    <path d="M81.48,126.58a3.85,3.85,0,0,0-.35.68.36.36,0,0,0,.35.37.35.35,0,0,0,.31-.37s-.31-.68-.31-.68" transform="translate(-8.58 -103.41)"/>
    <path d="M58.52,126.58a4,4,0,0,0-.31.68.34.34,0,1,0,.67,0s-.36-.68-.36-.68" transform="translate(-8.58 -103.41)"/>
    <path d="M64.29,126.58a3.81,3.81,0,0,0-.36.68.37.37,0,0,0,.36.37.36.36,0,0,0,.31-.37s-.31-.68-.31-.68" transform="translate(-8.58 -103.41)"/>
    <path d="M70,126.58a3.81,3.81,0,0,0-.36.68.37.37,0,1,0,.73,0s-.37-.68-.37-.68" transform="translate(-8.58 -103.41)"/>
    <path d="M75.72,126.58a4,4,0,0,0-.31.68.35.35,0,0,0,.31.37.37.37,0,0,0,.36-.37s-.36-.68-.36-.68" transform="translate(-8.58 -103.41)"/>
    <path d="M58.52,134.46a3.55,3.55,0,0,1,.36.66.34.34,0,1,1-.67,0l.31-.66" transform="translate(-8.58 -103.41)"/>
    <path d="M58.52,142.1a4.35,4.35,0,0,1,.36.66.34.34,0,1,1-.67,0l.31-.66" transform="translate(-8.58 -103.41)"/>
    <path d="M59.45,148.15a4.05,4.05,0,0,1,.36.67.37.37,0,0,1-.36.37.36.36,0,0,1-.31-.37s.31-.67.31-.67" transform="translate(-8.58 -103.41)"/>
    <path d="M64.29,151.36a4,4,0,0,1,.31.68.36.36,0,0,1-.31.37.37.37,0,0,1-.36-.37s.36-.68.36-.68" transform="translate(-8.58 -103.41)"/>
    <path d="M81.74,134.46a3.76,3.76,0,0,0-.31.66.34.34,0,1,0,.67,0l-.36-.66" transform="translate(-8.58 -103.41)"/>
    <path d="M81.74,142.1a4.61,4.61,0,0,0-.31.66.34.34,0,1,0,.67,0l-.36-.66" transform="translate(-8.58 -103.41)"/>
    <path d="M80.82,148.15a4.3,4.3,0,0,0-.31.67.36.36,0,0,0,.36.37.36.36,0,0,0,.3-.37s-.35-.67-.35-.67" transform="translate(-8.58 -103.41)"/>
    <path d="M76,151.36a4,4,0,0,0-.31.68c0,.2.1.37.31.37a.37.37,0,0,0,.36-.37s-.36-.68-.36-.68" transform="translate(-8.58 -103.41)"/>
    <path d="M70.16,154.77a4,4,0,0,0-.31.68.35.35,0,0,0,.31.37.36.36,0,0,0,.36-.37l-.36-.68" transform="translate(-8.58 -103.41)"/>
    <path d="M79.48,143.37c.1.1.25.14.51.07l.21-.62s-.26-.28-.41-.25c-.62.15-1.24.22-1.6.8a1.15,1.15,0,0,0,.57.95c.2-.07.25.14.41.25a.3.3,0,0,1-.26.33c-.46-.44-1.18.14-1.54-.4.15-.54.46-1.17-.05-1.68.05-.1.25-.21.15-.32-.21-.51-.72-.11-1.08-.11a1.39,1.39,0,0,0-1.29.65,1,1,0,0,0,.31.54.2.2,0,0,1,.26.15l-.36.23a.55.55,0,0,1,.1.4c-.26.1-.46-.26-.62-.45,0-.29.06-.8-.36-.87a2.14,2.14,0,0,0-.31.11,1.63,1.63,0,0,0-.1.6,3.34,3.34,0,0,0,.1.65,6.28,6.28,0,0,1,1.39,1.33c-.36.65-.36,1.57-1.08,1.93-.2.14-.2.36-.2.58l.15.14c.47-.25,1.39-.32,1.29-1.12a2.82,2.82,0,0,1,.72-.95.75.75,0,0,1,.82.4,1.38,1.38,0,0,1-1,1.09c-.1.08,0,.19,0,.29.16.26.57.15.77.11.62-.4.88-1.12,1.39-1.35.11.38-.72.48-.2.84.31-.07.77,0,1-.39-.26-.63.87-.92.15-1.46,0-.55.62-.76.57-1.34-.21-.59-.93-.59-1.08-1.13a.71.71,0,0,1,.72,0" transform="translate(-8.58 -103.41)"/>
    <path d="M53.17,150a.66.66,0,0,0,.72-.62.73.73,0,0,0-1.44,0,.66.66,0,0,0,.72.62" transform="translate(-8.58 -103.41)"/>
    <path d="M16,171.7a.68.68,0,0,0,0-1.36.68.68,0,1,0,0,1.36" transform="translate(-8.58 -103.41)"/>
    <path d="M39.53,176.9s0,0,0,0v0s0,0,0,0m.1.11h-.05v-.06h0v0s0,0,0,0h-.1c.05,0,.05,0,.05,0v-.09s0,0-.05,0h.1s.05,0,.05,0,0,0-.05,0l.05.05Z" transform="translate(-8.58 -103.41)"/>
    <path d="M39.73,176.87s0,0,0,0h0v0h0s.05,0,.05,0-.05,0-.1,0h0v-.05h0V177s0,0,0,0v0h0s0,0,0,0l0,0h0v0" transform="translate(-8.58 -103.41)"/>
    <polyline points="31.41 73.45 31.41 73.46 31.36 73.57 31.31 73.48 31.26 73.57 31.21 73.46 31.21 73.45 31.21 73.43 31.26 73.43 31.26 73.45 31.26 73.46 31.26 73.53 31.31 73.47 31.31 73.45 31.26 73.45 31.26 73.43 31.36 73.43 31.36 73.45 31.31 73.45 31.31 73.46 31.36 73.52 31.36 73.46 31.36 73.45 31.36 73.43 31.41 73.43"/>
    <path d="M40,176.91h0v0m0,.06s0,0,0-.05,0,0,0,0,0,0,0,0a.06.06,0,0,1,.05.06S40,177,40,177" transform="translate(-8.58 -103.41)"/>
    <path d="M40.15,176.89h0s0,0,0,0,0,.05,0,.05h-.06c.06,0,.06,0,.06,0s0,0,0,0l0,0h-.06l.06-.07h0v0h0" transform="translate(-8.58 -103.41)"/>
    <path d="M82.62,146.17a4.69,4.69,0,0,1-1.7,3.51l-10,6.35h-.05a1.19,1.19,0,0,1-.77.26,1.22,1.22,0,0,1-.77-.27l-9.94-6.34a4.54,4.54,0,0,1-1.75-3.51V126.38h25m.77-.7v0H56.93v20.24c0,2.06.87,3.87,2.06,4.42l10.19,6.45a1.2,1.2,0,0,0,1.75.1l10.35-6.55c1.18-.55,2.06-2.36,2.06-4.42Z" transform="translate(-8.58 -103.41)"/>
    <path d="M73.71,155.14,74,155a.86.86,0,0,0-.31.16" transform="translate(-8.58 -103.41)"/>
    <path d="M51.21,181.52l-.92-1.47-.57,1.65m4,1.07-2.47.29-.06-.17c.52-.08.62-.1.62-.31a3.59,3.59,0,0,0-.46-.82l-1.75.2c-.16.49-.26.76-.21.87s.36.22.67.21v.15l-1.54.18-.06-.15c.42-.1.52-.34.67-.85l1.29-3.73.26,0,2.11,3.2c.41.65.57.85.93.81Z" transform="translate(-8.58 -103.41)"/>
    <path d="M96.57,174.75A2.17,2.17,0,0,1,94.92,176c0-.91.88-1.56.57-2.59a2.26,2.26,0,0,0-2.37-.77c-.36.24-.21.62-.31,1l-.15,1.26c-.78,0-.78-.69-1-1.22a2.3,2.3,0,0,1,1.18-2,2.7,2.7,0,0,1,2.21.07,1.83,1.83,0,0,1,1.24.81c.57.53.41,1.5.31,2.18m-3.09.38c.41-.42-.1-2.82,1.08-1.26,0,.3,0,.76-.26,1s-.51.46-.82.27m.41,1c0,.61-.51.46-.82.69h-.88a2,2,0,0,1-.15-1.07,7.07,7.07,0,0,1,1.85.38M95,180.75c-.31.38,0,1-.41,1.34,0,.68-.57,1-1.08,1.3-4.48,1-9-.53-13.34-1.3a46.39,46.39,0,0,0-19.46-.31,83.69,83.69,0,0,0-8.54,2,12.69,12.69,0,0,1-5.35,0c-1.34-.65-.78-2.41-1.19-3.63a22.67,22.67,0,0,0-.31-2.64,2.3,2.3,0,0,1-.15-1c.56.09,1.13.51,1.75.65,3.19.62,6-.41,9-1a65.64,65.64,0,0,1,8.75-1.34,56.6,56.6,0,0,1,10.19.35c1,0,2,.3,3,.38,2.11.27,4.07.84,6.23,1,.36.11.77.11,1.18.19,3.4.53,7.21,1.48,10.5,0a25.54,25.54,0,0,1-.77,4m-19.3,2.79c.2.53.56,1,.36,1.68-.36.74-1.14.74-1.8.88a1.13,1.13,0,0,1-.88-.26c.05-.16,0-.27-.15-.39.1-.5-.88-1-.21-1.41s2.06-1.87,2.68-.5m.87.16c.47.11.47.6.52,1a2.08,2.08,0,0,1-1.29,1.87,2.05,2.05,0,0,1-1.49.16,2.38,2.38,0,0,0,2.26-1.31Zm1,5.08a.14.14,0,0,0-.1.15,4.33,4.33,0,0,1-2.63-1.18l-.05-.19a7.16,7.16,0,0,1,2.78,1.22m-1.39,3.52a.22.22,0,0,1-.31,0,20.6,20.6,0,0,1-2.42-4.59l.16,0c.92,1.48,1.64,3.12,2.57,4.58m-1.9-.92-.21.07c-.21-.14-.1-.56,0-.79.2.18.41.46.26.72m-1.09-2.29c.06.37.42.53.21.88a1.15,1.15,0,0,1-.21-.88m-.2-2.53h0v.12h0Zm-2.21,5.62c-.73,0-1.81.47-2.53-.15,0-.31-.31-.46-.26-.77.62-.23,1.14.51,1.7,0a15,15,0,0,1,2.68.08c.41.11,1.08-.7,1.13.11-.31,1.26-1.8.38-2.72.76M69,187.63l.2-.3A19.77,19.77,0,0,1,68,190.08c-.26-.92.72-1.64,1-2.45m1.08-.72c.51-.53,1,.3,1.13.72.57.85,2.06,1.61,1.49,2.75-.72.65-1.85.05-2.68.55-.41,0-1.13.07-1.33-.36a20.81,20.81,0,0,1,1.39-3.66M70,185.45h-.15l.2-.23c.16.08,0,.16,0,.23m.88.08c.15-.23.31-.58.62-.58a.15.15,0,0,0,0,.13,1.84,1.84,0,0,1-.67.45m.52.57a.33.33,0,0,1,.36,0Zm1,1.19c-.06.08,0,.19-.06.27l-.87-.69a.87.87,0,0,1,.93.42m-.06-2.21h-.05V185h.05Zm1.6-2.49c-.47.15-.83.69-1.29.8a1.58,1.58,0,0,1,1.29-.8m-1.91-.5c-.1-.34.31-.08.47-.23l1.18.08c-.62-.08-1.34,1.34-1.65.15m-2.78,1.07a4.31,4.31,0,0,1,.57-1.41,2.35,2.35,0,0,1,1,.15c.05.76,1,1.8,0,2.45-.36.15-.83.5-1.24.15a1.09,1.09,0,0,1-.36-1.34m-.56,2.37c0-.15,0-.35.1-.54.21-.18.36.16.46.28a.57.57,0,0,1-.56.26m0-1.76h0v-.42h0Zm-.47-1.14c-.46-.12-.77-.69-1.28-.69a2.91,2.91,0,0,1,1.44,0c.2.27-.11.5-.16.73m-.41,3.1a6.16,6.16,0,0,1,.62-1.62,3.21,3.21,0,0,1-.62,1.62m-.83,0a10.52,10.52,0,0,1-1.8-.46c-.41-.39,0-.81,0-1.23a1.88,1.88,0,0,1,2.73-.5,4,4,0,0,1-.93,2.19m.37,1v.16h-.11v-.19h.16a.32.32,0,0,0-.16,0Zm-1,2.22a26.05,26.05,0,0,1-1.86,3.59c0,.19-.36.23-.61.27,0-.53.56-1,.77-1.41.77-1,1-2.14,2-3.14.2.23-.26.39-.26.69m-3.6-.39c.92-.37,1.85-1.18,2.88-.83a5.2,5.2,0,0,1-2.88.83M64.13,186a4.09,4.09,0,0,1,1.19-3.45,2.21,2.21,0,0,1,1.64.08c-1,.27-2.26.5-2.47,1.76.06.5-.1.76.11,1.18.41.73,1.39.43,1.9,1a.48.48,0,0,1-.36.46,13.56,13.56,0,0,1-2-1M46.32,173.68c.11-.3,0-.76.41-.84s.67-.08.73.23-.11.91-.21,1.33c-.52,0-.77-.26-.93-.72m.11,1.28c.56.42,1.39.23,2,.35a1.43,1.43,0,0,1-.2,1.3c-.62-.15-1.49-.08-1.8-.69.05-.27-.11-.65,0-1m-1.81-1.09a3.12,3.12,0,0,1,.93-1.91,3.11,3.11,0,0,1,3,.12,1.4,1.4,0,0,1,.62.72,1.65,1.65,0,0,1-.56,1.72h-.36a4.76,4.76,0,0,1,.2-1.72c0-.46-.41-.49-.72-.69a2.16,2.16,0,0,0-1.7.39,1.8,1.8,0,0,0-.51,1.67c.26.43,0,1,.2,1.46l-.1.15a2.4,2.4,0,0,1-1-1.91m35.63,16.24a15.89,15.89,0,0,0,4.07,1c-.11.52-1,0-.93.76-1.19-.46-2.58-.69-3.45-1.6.1,0,.16-.16.31-.13m-23.68.62-.52-.49c.26-.35.83-.16,1.24-.39a6.64,6.64,0,0,1,3.24-.46,9.24,9.24,0,0,1-4,1.34m41-17.43A4,4,0,0,0,95,170.93a3.26,3.26,0,0,0-3.29.83c-1.39,1.11-.41,3-.36,4.44,0,.3,0,.54-.31.69C85.5,176.39,80.4,175,75,174.44c-1.29-.22-2.52-.16-3.71-.41l-1.54-.16a65.13,65.13,0,0,0-14,1.57c-.92.3-2,.38-2.93.72-.67-.12-1.24.39-1.9.2l-1.24.29a.94.94,0,0,1-.41,0c-.62-1.56,1.18-2.52.62-4.05A2.79,2.79,0,0,0,47.25,171a3.18,3.18,0,0,0-3,1.57c-.87,1.91.26,3.9.57,5.78-.05.6.62,1.29,0,1.79a5.14,5.14,0,0,0-4.27-.88c-.47.23-1.29-.08-1.5.46,1.6.88,3.71.76,5.51.69.26-.07.41-.12.57,0,.15,1-.16,2.32.41,3.2a4,4,0,0,0,2.93,1.27c3.5-.11,6.59-1.15,9.78-2,.52,0,.88-.3,1.45-.3a27.69,27.69,0,0,1,5.35-.72,9.94,9.94,0,0,0-1.59,3.44c-.47,1,.82,1.18,1.18,1.76a26.49,26.49,0,0,0-3.09,1.6c-2.42-.07-4.48.84-6.8,1.11,0,.49.83.35.88.85-.1.33-.41.38-.72.56,0,.23,0,.28.26.31.2-.26.72-.08.92-.34.77,0,1.44-.23,2.16-.27a6.93,6.93,0,0,0,1.91-.76c.82-.23,1.29-.77,2.11-1,1.13,0,2.16-.39,3.19-.46V189c-.87,1.41-1.75,2.87-2.67,4.21a.44.44,0,0,0,.25.61,2,2,0,0,0,1.49-.22c.78-1.39,1.5-2.68,2.17-4.11.26-1.29,1.23-2,2.16-2.85.15-.09.36-.32.52-.09a21.35,21.35,0,0,0-1.81,2.68,3.27,3.27,0,0,0,.57,3.33c.46.38,1.13.26,1.75.3,1.49-.76,3.4.46,4.53-1,.67-.12.77.69,1.18,1.07.62.2,1.29.84,2,.38,0-.41-.51-.8-.72-1.18-.46-.8-1-1.45-1.44-2.19a7.87,7.87,0,0,1-.62-1.41,11.78,11.78,0,0,0,2.06.81,14.55,14.55,0,0,1,2.06.6,6.35,6.35,0,0,0,1.9,1.46c.93.46,2,.53,3,.92.36,0,.93.35,1.18,0a1.43,1.43,0,0,0-.56-.42c-.11-.5.72-.23,1-.62a.62.62,0,0,0-.47-.29c-.51-.29-1.9-.38-2.26-.59a8.77,8.77,0,0,1-1.29-.41c-2.32,0-3.55-2.07-5.35-2.83.41-.39,1-.69,1.28-1.27a2.18,2.18,0,0,0,.16-2c-.36-1.19-1.86-1-2.73-1.68l.1-.12a15.06,15.06,0,0,1,4.07.54c3.66.5,7,1.87,10.86,1.94,2.06,0,4.69.12,5.72-1.9.2-1.18.41-2.38.61-3.56.47-1.92,1.7-3.67,1.5-5.77" transform="translate(-8.58 -103.41)"/>
    <rect x="134.73" y="56.48" width="238.19" height="1.22"/>
  </g>
  <text transform="translate(135.17 82.79)" font-size="24.12" font-family="TimesNewRomanPS-BoldMT, Times New Roman" font-weight="700"><tspan letter-spacing="-0.04em">Aust</tspan><tspan x="44.88" y="0" letter-spacing="-0.03em">r</tspan><tspan x="54.76" y="0" letter-spacing="-0.04em">a</tspan><tspan x="65.98" y="0" letter-spacing="-0.03em">li</tspan><tspan x="77.74" y="0" letter-spacing="-0.04em">an </tspan><tspan x="106.71" y="0" letter-spacing="-0.03em">B</tspan><tspan x="121.98" y="0" letter-spacing="-0.04em">u</tspan><tspan x="134.55" y="0" letter-spacing="-0.03em">il</tspan><tspan x="146.31" y="0" letter-spacing="-0.04em">d</tspan><tspan x="158.88" y="0" letter-spacing="-0.03em">i</tspan><tspan x="164.76" y="0" letter-spacing="-0.04em">n</tspan><tspan x="177.33" y="0" letter-spacing="-0.03em">g</tspan><tspan x="188.58" y="0" letter-spacing="-0.04em"> </tspan><tspan x="193.76" y="0" letter-spacing="-0.03em">a</tspan><tspan x="205" y="0" letter-spacing="-0.04em">n</tspan><tspan x="217.57" y="0">d</tspan></text>
  <text transform="translate(135.17 108.4)" font-size="24.12" font-family="TimesNewRomanPS-BoldMT, Times New Roman" font-weight="700"><tspan letter-spacing="-0.04em">Const</tspan><tspan x="56.09" y="0" letter-spacing="-0.03em">r</tspan><tspan x="65.98" y="0" letter-spacing="-0.04em">u</tspan><tspan x="78.55" y="0" letter-spacing="-0.03em">c</tspan><tspan x="88.43" y="0" letter-spacing="-0.04em">t</tspan><tspan x="95.62" y="0" letter-spacing="-0.03em">i</tspan><tspan x="101.5" y="0" letter-spacing="-0.03em">on C</tspan><tspan x="147.05" y="0" letter-spacing="-0.03em">o</tspan><tspan x="158.29" y="0" letter-spacing="-0.04em">mm</tspan><tspan x="196.79" y="0" letter-spacing="-0.03em">i</tspan><tspan x="202.67" y="0" letter-spacing="-0.04em">ss</tspan><tspan x="219.75" y="0" letter-spacing="-0.03em">io</tspan><tspan x="236.87" y="0">n</tspan></text>
</svg>
