<svg xmlns="http://www.w3.org/2000/svg" viewBox="0 0 75 68"><defs><style>.a{fill:#ceede3;}.b{fill:#17b791;}.c{fill:#26313f;}.d{fill:#fff;}.e{fill:none;}</style></defs><title>Anonymous-report-form</title><rect class="a" x="20.8398" y="12.9987" width="33.4854" height="30.5738"/><path class="b" d="M38.2487,34.8659a6.2417,6.2417,0,0,1-6.2344-6.2344V27.5348a6.2344,6.2344,0,0,1,12.4688,0v1.0967A6.2417,6.2417,0,0,1,38.2487,34.8659Zm0-12.0654a4.74,4.74,0,0,0-4.7344,4.7343v1.0967a4.7344,4.7344,0,1,0,9.4688,0V27.5348A4.74,4.74,0,0,0,38.2487,22.8005Z" transform="translate(-0.6667 -0.4167)"/><path class="b" d="M48.8708,44.7389h-1.5V42.3717a4.7082,4.7082,0,0,0-3.5274-4.582,21.9462,21.9462,0,0,0-11.1894,0,4.7082,4.7082,0,0,0-3.5274,4.582v2.3672h-1.5V42.3717a6.2066,6.2066,0,0,1,4.6563-6.0351,23.4157,23.4157,0,0,1,11.9316,0,6.2066,6.2066,0,0,1,4.6563,6.0351Z" transform="translate(-0.6667 -0.4167)"/><path class="c" d="M74.2233,58.0876,67.987,44.572V11.4738c0-2.9893-2.9346-5.4214-6.542-5.4214H15.4128c-3.6084,0-6.544,2.4321-6.544,5.4214V44.5617L2.3781,58.07l-.0488.1152a3.302,3.302,0,0,0,.3823,3.06,3.7852,3.7852,0,0,0,3.1758,1.5361H70.7048a3.9613,3.9613,0,0,0,3.4472-1.789A2.9043,2.9043,0,0,0,74.2233,58.0876ZM15.4128,8.5524H61.445c2.1914,0,4.042,1.3379,4.042,2.9214V43.5964H11.3688V11.4738C11.3688,9.89,13.2209,8.5524,15.4128,8.5524ZM72.0046,59.7135a1.51,1.51,0,0,1-1.3.5674H5.8874a1.3383,1.3383,0,0,1-1.1289-.4717.8.8,0,0,1-.0953-.7236l6.2417-12.9892H65.9372l6.0527,13.11A.4583.4583,0,0,1,72.0046,59.7135Z" transform="translate(-0.6667 -0.4167)"/><path class="c" d="M26.8434,51.9577H23.7428a1.25,1.25,0,0,1,0-2.5h3.1006a1.25,1.25,0,1,1,0,2.5Z" transform="translate(-0.6667 -0.4167)"/><path class="c" d="M36.1481,51.9577H33.0465a1.25,1.25,0,1,1,0-2.5h3.1016a1.25,1.25,0,0,1,0,2.5Z" transform="translate(-0.6667 -0.4167)"/><path class="c" d="M45.4518,51.9577H42.3512a1.25,1.25,0,1,1,0-2.5h3.1006a1.25,1.25,0,1,1,0,2.5Z" transform="translate(-0.6667 -0.4167)"/><path class="c" d="M54.7565,51.9577H51.654a1.25,1.25,0,0,1,0-2.5h3.1025a1.25,1.25,0,0,1,0,2.5Z" transform="translate(-0.6667 -0.4167)"/><path class="c" d="M26.8434,56.92H23.7428a1.25,1.25,0,0,1,0-2.5h3.1006a1.25,1.25,0,1,1,0,2.5Z" transform="translate(-0.6667 -0.4167)"/><path class="c" d="M45.4518,56.92H33.0465a1.25,1.25,0,0,1,0-2.5H45.4518a1.25,1.25,0,0,1,0,2.5Z" transform="translate(-0.6667 -0.4167)"/><path class="c" d="M54.7565,56.92H51.654a1.25,1.25,0,1,1,0-2.5h3.1025a1.25,1.25,0,0,1,0,2.5Z" transform="translate(-0.6667 -0.4167)"/><path class="c" d="M24.4167,17.0563a.7427.7427,0,0,1-.52-.22.6175.6175,0,0,1-.15-.23.679.679,0,0,1-.06-.28.7335.7335,0,0,1,.21-.51.7722.7722,0,0,1,.24-.16.7433.7433,0,0,1,.8.16.7352.7352,0,0,1,.21.51.7182.7182,0,0,1-.21.51A.7435.7435,0,0,1,24.4167,17.0563Z" transform="translate(-0.6667 -0.4167)"/><path class="c" d="M27.3263,17.0563a.72.72,0,0,1-.51-.22.6869.6869,0,0,1-.22-.51.7024.7024,0,0,1,.22-.51.73.73,0,0,1,.23-.16.7283.7283,0,0,1,1.01.67.7333.7333,0,0,1-.73.73Z" transform="translate(-0.6667 -0.4167)"/><path class="c" d="M30.236,17.0563a.7546.7546,0,0,1-.51-.21.7179.7179,0,0,1-.21-.52.6894.6894,0,0,1,.05-.28.7436.7436,0,0,1,.95-.39.78.78,0,0,1,.24.16.73.73,0,0,1,.16.23.9114.9114,0,0,1,.05.28.7176.7176,0,0,1-.21.52A.7585.7585,0,0,1,30.236,17.0563Z" transform="translate(-0.6667 -0.4167)"/><path class="c" d="M54.9919,12.6652H21.5065a.75.75,0,0,0-.75.75V44.8464a.75.75,0,0,0,.75.75H54.9919a.75.75,0,0,0,.75-.75V13.4152A.75.75,0,0,0,54.9919,12.6652Zm-.75,1.5v4.3237H22.2565V14.1652ZM22.2565,44.0964V19.9889H54.2419V44.0964Z" transform="translate(-0.6667 -0.4167)"/><path class="b" d="M32.3669,25.526" transform="translate(-0.6667 -0.4167)"/><circle class="d" cx="54.3252" cy="31.4113" r="6.7432"/><path class="c" d="M54.9919,39.321a7.4932,7.4932,0,1,1,7.4931-7.4932A7.5016,7.5016,0,0,1,54.9919,39.321Zm0-13.4864a5.9932,5.9932,0,1,0,5.9931,5.9932A6,6,0,0,0,54.9919,25.8346Z" transform="translate(-0.6667 -0.4167)"/><path class="c" d="M54.7165,36.486a.665.665,0,0,1-.28-.05.7619.7619,0,0,1-.2393-.16.7311.7311,0,0,1-.2109-.51.6769.6769,0,0,1,.0605-.28.7379.7379,0,0,1,.15-.2393.7542.7542,0,0,1,1.0293,0,.7409.7409,0,0,1,.2207.52.7075.7075,0,0,1-.06.28.847.847,0,0,1-.16.23A.69.69,0,0,1,54.7165,36.486Z" transform="translate(-0.6667 -0.4167)"/><path class="c" d="M54.7155,34.75a.75.75,0,0,1-.75-.75V32.69a1.2346,1.2346,0,0,1,.8223-1.1577c1.6679-.5908,1.6679-1.229,1.6679-1.439a1.5668,1.5668,0,0,0-1.6914-1.395,1.7686,1.7686,0,0,0-1.4912.7407.75.75,0,1,1-1.2578-.8183,3.2816,3.2816,0,0,1,2.749-1.4224,3.0576,3.0576,0,0,1,3.1914,2.895c0,1.2237-.8379,2.1612-2.49,2.7881V34A.75.75,0,0,1,54.7155,34.75Z" transform="translate(-0.6667 -0.4167)"/><rect class="e" width="75" height="68"/></svg>