<svg id="Layer_1" data-name="Layer 1" xmlns="http://www.w3.org/2000/svg" viewBox="0 0 62.5 62.5">
  <title>icon-job-step3</title>
  <path d="M1062.37,326.36c-3.79-1.46-8-3.28-8.35-4.42v-1.19a7.55,7.55,0,0,0,1.77-3.24,1.91,1.91,0,0,0,.37-2.79v-2.67c0-2.75-1.53-4.63-5-4.63s-5,1.88-5,4.63v2.67a1.92,1.92,0,0,0,.37,2.79,7.55,7.55,0,0,0,1.77,3.24v1.19c-.35,1.14-4.56,3-8.35,4.42a.86.86,0,0,0-.54.79v3a.84.84,0,0,0,.84.85h21.88a.84.84,0,0,0,.84-.85v-3A.84.84,0,0,0,1062.37,326.36Z" transform="translate(-1019.83 -295.73)" fill="#ceede3"/>
  <path d="M1062.37,326.36c-3.79-1.46-8-3.28-8.35-4.42v-1.19a7.55,7.55,0,0,0,1.77-3.24,1.91,1.91,0,0,0,.37-2.79v-2.67c0-2.75-1.53-4.63-5-4.63s-5,1.88-5,4.63v2.67a1.92,1.92,0,0,0,.37,2.79,7.55,7.55,0,0,0,1.77,3.24v1.19c-.35,1.14-4.56,3-8.35,4.42a.86.86,0,0,0-.54.79v3a.84.84,0,0,0,.84.85h21.88a.84.84,0,0,0,.84-.85v-3A.84.84,0,0,0,1062.37,326.36Z" transform="translate(-1019.83 -295.73)" fill="none" stroke="#17b791" stroke-linecap="square" stroke-width="2"/>
  <line x1="43.14" y1="45.77" x2="19.41" y2="45.77" fill="none" stroke="#26313f" stroke-linejoin="round" stroke-width="2"/>
  <line x1="40.51" y1="51.03" x2="22.04" y2="51.03" fill="none" stroke="#26313f" stroke-linejoin="round" stroke-width="2"/>
  <rect x="11.52" y="1" width="39.46" height="60.5" rx="2.63" ry="2.63" fill="none" stroke="#26313f" stroke-linejoin="round" stroke-width="2"/>
  <path d="M1026.09,352h-2.63a2.63,2.63,0,0,1-2.63-2.63V304.62a2.63,2.63,0,0,1,2.63-2.63h2.63" transform="translate(-1019.83 -295.73)" fill="none" stroke="#26313f" stroke-linejoin="round" stroke-width="2"/>
  <path d="M1076.07,352h2.63a2.63,2.63,0,0,0,2.63-2.63V304.62a2.63,2.63,0,0,0-2.63-2.63h-2.63" transform="translate(-1019.83 -295.73)" fill="none" stroke="#26313f" stroke-linejoin="round" stroke-width="2"/>
</svg>
