<svg id="Layer_1" data-name="Layer 1" xmlns="http://www.w3.org/2000/svg" width="78.33" height="64.28" viewBox="0 0 78.33 64.28">
  <title>icon-contact-form</title>
  <rect x="1.07" y="1" width="76.26" height="17.1" fill="none" stroke="#fff" stroke-linecap="square" stroke-width="2"/>
  <path d="M160.89,566l.75,4.32a.63.63,0,0,0,1.06.33l2.64-2.65,3.3,5.8a.63.63,0,0,0,.89.21l3.39-2.28a.62.62,0,0,0,.15-.89L169.39,566h32.53v15.76H124.27V566Z" transform="translate(-123.89 -517.49)" fill="#17b791"/>
  <path d="M173.07,570.85,169.39,566l3.3-.65a.62.62,0,0,0,.3-1.07l-13.37-12a.62.62,0,0,0-1,.57l3,17.5a.63.63,0,0,0,1.06.33l2.64-2.65,3.3,5.8a.63.63,0,0,0,.89.21l3.39-2.28A.62.62,0,0,0,173.07,570.85Z" transform="translate(-123.89 -517.49)" fill="none" stroke="#fff" stroke-linecap="square" stroke-linejoin="round" stroke-width="2"/>
  <g>
    <rect x="16.69" y="20.16" width="1.67" height="26.3" fill="#17b791"/>
    <rect x="14.66" y="20.16" width="5.75" height="1.67" fill="#17b791"/>
    <rect x="14.66" y="44.79" width="5.75" height="1.67" fill="#17b791"/>
    <polygon points="14.81 42.62 0 42.62 0 24.09 14.81 24.09 14.81 26.59 2.5 26.59 2.5 40.11 14.81 40.11 14.81 42.62" fill="#fff"/>
    <path d="M136.07,548.12H130a.83.83,0,0,1-.83-.83.84.84,0,0,1,.83-.84h6.09a.85.85,0,0,1,.84.84A.84.84,0,0,1,136.07,548.12Z" transform="translate(-123.89 -517.49)" fill="#17b791"/>
    <path d="M133,555.37a.85.85,0,0,1-.84-.84v-7.24a.85.85,0,0,1,.84-.84.84.84,0,0,1,.83.84v7.24A.84.84,0,0,1,133,555.37Z" transform="translate(-123.89 -517.49)" fill="#17b791"/>
  </g>
  <polygon points="78.23 42.62 44.74 42.62 41.41 40.11 75.73 40.11 75.73 26.59 20.51 26.59 20.51 24.09 78.23 24.09 78.23 42.62" fill="#fff"/>
  <polygon points="36.1 42.62 20.51 42.62 20.51 40.11 35.27 40.11 36.1 42.62" fill="#fff"/>
</svg>
