<svg xmlns="http://www.w3.org/2000/svg" viewBox="0 0 75 68"><defs><style>.a{fill:#ceede3;}.b{fill:#26313f;}.c{fill:#17b791;}.d{fill:none;}</style></defs><title>online-enquiry-form</title><rect class="a" x="20.8398" y="12.9987" width="33.4854" height="30.5738"/><path class="b" d="M26.8434,51.9577H23.7428a1.25,1.25,0,0,1,0-2.5h3.1006a1.25,1.25,0,1,1,0,2.5Z" transform="translate(-0.6667 -0.4167)"/><path class="b" d="M36.1481,51.9577H33.0465a1.25,1.25,0,1,1,0-2.5h3.1016a1.25,1.25,0,0,1,0,2.5Z" transform="translate(-0.6667 -0.4167)"/><path class="b" d="M45.4518,51.9577H42.3512a1.25,1.25,0,1,1,0-2.5h3.1006a1.25,1.25,0,1,1,0,2.5Z" transform="translate(-0.6667 -0.4167)"/><path class="b" d="M54.7565,51.9577H51.654a1.25,1.25,0,0,1,0-2.5h3.1025a1.25,1.25,0,0,1,0,2.5Z" transform="translate(-0.6667 -0.4167)"/><path class="b" d="M26.8434,56.92H23.7428a1.25,1.25,0,0,1,0-2.5h3.1006a1.25,1.25,0,1,1,0,2.5Z" transform="translate(-0.6667 -0.4167)"/><path class="b" d="M45.4518,56.92H33.0465a1.25,1.25,0,0,1,0-2.5H45.4518a1.25,1.25,0,0,1,0,2.5Z" transform="translate(-0.6667 -0.4167)"/><path class="b" d="M54.7565,56.92H51.654a1.25,1.25,0,1,1,0-2.5h3.1025a1.25,1.25,0,0,1,0,2.5Z" transform="translate(-0.6667 -0.4167)"/><path class="b" d="M24.4167,17.0563a.7427.7427,0,0,1-.52-.22.6175.6175,0,0,1-.15-.23.679.679,0,0,1-.06-.28.7335.7335,0,0,1,.21-.51.7722.7722,0,0,1,.24-.16.7433.7433,0,0,1,.8.16.7352.7352,0,0,1,.21.51.7182.7182,0,0,1-.21.51A.7435.7435,0,0,1,24.4167,17.0563Z" transform="translate(-0.6667 -0.4167)"/><path class="b" d="M27.3263,17.0563a.72.72,0,0,1-.51-.22.6869.6869,0,0,1-.22-.51.7024.7024,0,0,1,.22-.51.73.73,0,0,1,.23-.16.7283.7283,0,0,1,1.01.67.7333.7333,0,0,1-.73.73Z" transform="translate(-0.6667 -0.4167)"/><path class="b" d="M30.236,17.0563a.7546.7546,0,0,1-.51-.21.7179.7179,0,0,1-.21-.52.6894.6894,0,0,1,.05-.28.7436.7436,0,0,1,.95-.39.78.78,0,0,1,.24.16.73.73,0,0,1,.16.23.9114.9114,0,0,1,.05.28.7176.7176,0,0,1-.21.52A.7585.7585,0,0,1,30.236,17.0563Z" transform="translate(-0.6667 -0.4167)"/><path class="b" d="M74.2233,58.0876,67.987,44.572V11.4738c0-2.9893-2.9346-5.4214-6.542-5.4214H15.4128c-3.6084,0-6.544,2.4321-6.544,5.4214V44.5617L2.3781,58.07l-.0488.1152a3.302,3.302,0,0,0,.3823,3.06,3.7852,3.7852,0,0,0,3.1758,1.5361H70.7048a3.9613,3.9613,0,0,0,3.4472-1.789A2.9043,2.9043,0,0,0,74.2233,58.0876ZM11.3688,11.4738c0-1.5835,1.8521-2.9214,4.044-2.9214H61.445c2.1914,0,4.042,1.3379,4.042,2.9214V43.5964H55.7419V13.4152a.75.75,0,0,0-.75-.75H21.5065a.75.75,0,0,0-.75.75V43.5964H11.3688Zm42.8731,7.0151H22.2565V14.1652H54.2419Zm0,1.5V43.5964H22.2565V19.9889ZM72.0046,59.7135a1.51,1.51,0,0,1-1.3.5674H5.8874a1.3383,1.3383,0,0,1-1.1289-.4717.8.8,0,0,1-.0953-.7236l6.2417-12.9892H65.9372l6.0527,13.11A.4583.4583,0,0,1,72.0046,59.7135Z" transform="translate(-0.6667 -0.4167)"/><path class="c" d="M32.3669,27.6593a2.5283,2.5283,0,1,1,2.5283-2.5278A2.5305,2.5305,0,0,1,32.3669,27.6593Zm0-3.5566a1.0283,1.0283,0,1,0,1.0283,1.0288A1.0295,1.0295,0,0,0,32.3669,24.1027Z" transform="translate(-0.6667 -0.4167)"/><path class="b" d="M32.3669,33.9626a2.5286,2.5286,0,1,1,2.5283-2.5284A2.5307,2.5307,0,0,1,32.3669,33.9626Zm0-3.5572a1.0286,1.0286,0,1,0,1.0283,1.0288A1.03,1.03,0,0,0,32.3669,30.4054Z" transform="translate(-0.6667 -0.4167)"/><path class="b" d="M32.3669,40.2682a2.5293,2.5293,0,1,1,2.5283-2.5312A2.5325,2.5325,0,0,1,32.3669,40.2682Zm0-3.5586a1.0293,1.0293,0,1,0,1.0283,1.0274A1.0289,1.0289,0,0,0,32.3669,36.71Z" transform="translate(-0.6667 -0.4167)"/><path class="b" d="M46.1081,38.4889h-9.4a.75.75,0,0,1,0-1.5h9.4a.75.75,0,1,1,0,1.5Z" transform="translate(-0.6667 -0.4167)"/><path class="b" d="M46.1081,32.1842h-9.4a.75.75,0,0,1,0-1.5h9.4a.75.75,0,0,1,0,1.5Z" transform="translate(-0.6667 -0.4167)"/><path class="c" d="M46.1081,25.8815h-9.4a.75.75,0,0,1,0-1.5h9.4a.75.75,0,0,1,0,1.5Z" transform="translate(-0.6667 -0.4167)"/><path class="c" d="M32.3669,25.526" transform="translate(-0.6667 -0.4167)"/><rect class="d" width="75" height="68"/></svg>