<svg id="Layer_1" data-name="Layer 1" xmlns="http://www.w3.org/2000/svg" width="68.92" height="64.96" viewBox="0 0 68.92 64.96">
  <title>icon-call</title>
  <path d="M267.58,282.33h34.67V277a5.5,5.5,0,0,0-5.42-5.55H273a5.5,5.5,0,0,0-5.42,5.55Z" transform="translate(-266.58 -270.49)" fill="none" stroke="#fff" stroke-linecap="square" stroke-width="2"/>
  <path d="M267.58,321.43v7.47a5.5,5.5,0,0,0,5.42,5.55h23.83a5.5,5.5,0,0,0,5.42-5.55v-7.47Zm17.34,9.88A3.35,3.35,0,1,1,288.2,328,3.32,3.32,0,0,1,284.92,331.31Z" transform="translate(-266.58 -270.49)" fill="none" stroke="#fff" stroke-linecap="square" stroke-width="2"/>
  <rect y="15.64" width="36.67" height="31.5" fill="#17b791"/>
  <path d="M311.65,312.11a14.35,14.35,0,0,0,0-21.85" transform="translate(-266.58 -270.49)" fill="none" stroke="#fff" stroke-linecap="square" stroke-linejoin="round" stroke-width="2"/>
  <path d="M318.44,317.4a23.13,23.13,0,0,0,0-32.43" transform="translate(-266.58 -270.49)" fill="none" stroke="#fff" stroke-linecap="square" stroke-linejoin="round" stroke-width="2"/>
  <path d="M325.74,323.62c11.67-12.26,11.69-32.6,0-44.87" transform="translate(-266.58 -270.49)" fill="none" stroke="#fff" stroke-linecap="square" stroke-linejoin="round" stroke-width="2"/>
</svg>
