<svg id="Layer_1" data-name="Layer 1" xmlns="http://www.w3.org/2000/svg" viewBox="0 0 76.06 42.27">
  <title>icon-job-step7</title>
  <rect x="1080.04" y="709.31" width="12.24" height="25.34" transform="translate(-1176.29 -383.42) rotate(-15.81)" fill="#ceede3"/>
  <path d="M1076.87,712.43l-4,1.22c-10.83-5.59-15.25-4.33-15.25-4.33a13.67,13.67,0,0,0-4.89,1.76c-12.49.27-13.06,1.31-13.06,1.31l-4.56,16.1c2,5.79,18.24,18.33,18.24,18.33,3.92,3.31,7.45-1.74,4.24-4.47l-2.07-2h0l6.26,5.44a3.26,3.26,0,1,0,4.44-4.77l1.69,1.44c3.37,2.85,7.81-2.41,4.45-5.26l.26.22c2.76,2.33,6.22-.76,5.56-3.52h0v0c.36.09,3.16.67,4.68-1.06Z" transform="translate(-1020.66 -706.7)" fill="none" stroke="#26313f" stroke-linejoin="round" stroke-width="2"/>
  <line x1="51.72" y1="30.57" x2="44.78" y2="24.73" fill="none" stroke="#26313f" stroke-linejoin="round" stroke-width="2"/>
  <line x1="45.34" y1="34.1" x2="39.68" y2="29.47" fill="none" stroke="#26313f" stroke-linejoin="round" stroke-width="2"/>
  <path d="M1035.09,728.55c2,5.8,18.24,18.33,18.24,18.33,3.92,3.31,7.45-1.74,4.24-4.46l-2.47-2.4" transform="translate(-1020.66 -706.7)" fill="none" stroke="#26313f" stroke-linejoin="round" stroke-width="2"/>
  <path d="M1055.1,740l6.71,5.83a3.26,3.26,0,1,0,4.44-4.76l1.69,1.43c3.37,2.86,7.81-2.41,4.45-5.26l.26.22c3.37,2.86,7.81-2.41,4.45-5.26l-16.61-13.54a16.41,16.41,0,0,1-3.51.92,2.39,2.39,0,0,0-1.67,1c-1.48,1.92-4.88,5.7-7.54,3.76-3.5-2.55,0-13.4,9.83-15,0,0,4.42-1.26,15.25,4.32l4-1.22" transform="translate(-1020.66 -706.7)" fill="none" stroke="#26313f" stroke-linejoin="round" stroke-width="2"/>
  <path d="M1039.65,712.45s.57-1,13.06-1.31" transform="translate(-1020.66 -706.7)" fill="none" stroke="#26313f" stroke-linejoin="round" stroke-width="2"/>
  <path d="M1078.17,734s3.1.81,4.72-1.05" transform="translate(-1020.66 -706.7)" fill="none" stroke="#26313f" stroke-linejoin="round" stroke-width="2"/>
  <rect x="1080.04" y="709.31" width="12.24" height="25.34" transform="translate(-1176.29 -383.42) rotate(-15.81)" fill="none" stroke="#17b791" stroke-linecap="square" stroke-width="2"/>
  <rect x="1018.11" y="715.21" width="25.34" height="12.24" transform="translate(-964.77 809.89) rotate(-74.19)" fill="#cde8f7" stroke="#26a2dc" stroke-linecap="round" stroke-linejoin="round" stroke-width="1.56"/>
</svg>
