<svg xmlns="http://www.w3.org/2000/svg" viewBox="0 0 75 68"><defs><style>.a{fill:#ceede3;}.b{fill:#26313f;}.c{fill:#17b791;}.d{fill:none;}</style></defs><title>phone</title><rect class="a" x="11.057" y="20.8211" width="28.8417" height="25.7994"/><path class="b" d="M41.8151,19.1042H10.4733V13.4518a5.82,5.82,0,0,1,5.7573-5.8686H36.0573a5.8207,5.8207,0,0,1,5.7578,5.8686Zm-28.8418-2.5H39.3151V13.4518a3.3187,3.3187,0,0,0-3.2578-3.3686H16.2306a3.3183,3.3183,0,0,0-3.2573,3.3686Z" transform="translate(-0.6667 -0.4167)"/><path class="b" d="M36.0573,62.47H16.2306a5.82,5.82,0,0,1-5.7573-5.8682V49.1393H41.8151v7.4629A5.8206,5.8206,0,0,1,36.0573,62.47ZM12.9733,51.6393v4.9629A3.3179,3.3179,0,0,0,16.2306,59.97H36.0573a3.3183,3.3183,0,0,0,3.2578-3.3682V51.6393Z" transform="translate(-0.6667 -0.4167)"/><path class="c" d="M41.75,47.9753H10.5V20.2673H41.75ZM12,46.4753H40.25V21.7673H12Z" transform="translate(-0.6667 -0.4167)"/><path class="c" d="M48.3171,43.69l-.9922-1.125.5625-.4961a11.1886,11.1886,0,0,0,0-17.0517l-.5625-.4966.9922-1.1245.5625.4961a12.688,12.688,0,0,1,0,19.3017Z" transform="translate(-0.6667 -0.4167)"/><path class="c" d="M54.0368,48.0973l-1.0615-1.0595.5293-.5313a18.603,18.603,0,0,0,0-25.9277l-.5293-.5308,1.0615-1.06.53.5308a19.8829,19.8829,0,0,1,0,28.0479Z" transform="translate(-0.6667 -0.4167)"/><path class="c" d="M60.1364,53.2692,59.05,52.235l.5176-.5439c9.3671-9.8379,9.3671-26.46,0-36.2969l-.5176-.543,1.0869-1.0346.5166.5434a28.1338,28.1338,0,0,1,0,38.3662Z" transform="translate(-0.6667 -0.4167)"/><path class="b" d="M26.1452,59.19h-.001a3.3212,3.3212,0,1,1,.001,0Zm-.001-5.2412a1.8713,1.8713,0,1,0,1.8213,1.87A1.8491,1.8491,0,0,0,26.1442,53.9489Z" transform="translate(-0.6667 -0.4167)"/><rect class="d" width="75" height="68"/></svg>