<svg id="Layer_1" data-name="Layer 1" xmlns="http://www.w3.org/2000/svg" width="74.94" height="78.06" viewBox="0 0 74.94 78.06">
  <title>icon-outbox</title>
  <path d="M815.12,524.15h-14L787,539.6h22.89V547a5.45,5.45,0,0,0,5.45,5.44H830.2a5.45,5.45,0,0,0,5.45-5.44V539.6H859l-14.06-15.45H830.62" transform="translate(-785.52 -496.2)" fill="#cde8f7" stroke="#26a2dc" stroke-linecap="round" stroke-linejoin="round" stroke-width="2"/>
  <path d="M835.65,539.6V547a5.45,5.45,0,0,1-5.45,5.44H815.36a5.45,5.45,0,0,1-5.45-5.44V539.6H787v27.13a6,6,0,0,0,6,6h59.9a6,6,0,0,0,6-6V539.6Z" transform="translate(-785.52 -496.2)" fill="none" stroke="#26313f" stroke-linejoin="round" stroke-width="3"/>
  <line x1="37.28" y1="2.12" x2="37.28" y2="43.44" fill="none" stroke="#26313f" stroke-linejoin="round" stroke-width="3"/>
  <polyline points="26.97 12.43 37.28 2.12 47.58 12.43" fill="none" stroke="#26313f" stroke-miterlimit="10" stroke-width="3"/>
</svg>
