<svg id="Layer_1" data-name="Layer 1" xmlns="http://www.w3.org/2000/svg" width="69.52" height="85.59" viewBox="0 0 69.52 85.59">
  <title>icon-contractor</title>
  <path d="M923.92,524.9c0,3,.5,3.49,1.41,6.17-1.58.71-.65,8.66,1.85,8.66h.08c.94,11.94,14.51,24.8,23.1,24.8,8.81,0,22.15-12.86,23.09-24.8h.08c2.5,0,3.43-8,1.85-8.66.91-2.68,1.42-3.18,1.42-6.17" transform="translate(-915.6 -480.44)" fill="none" stroke="#003956" stroke-linecap="square" stroke-linejoin="round" stroke-width="3"/>
  <path d="M955.1,485.7V510a2.21,2.21,0,0,1-2.21,2.21h-5a2.21,2.21,0,0,1-2.21-2.21V485.7c-13.29,1.49-21,17.35-23.07,27.35h0a5.57,5.57,0,0,0-5.55,5.56c0,3.06,2.36,4.53,5.55,5.56,28.56,10.06,55.41,0,55.41,0h0c3.05-.92,5.55-2.5,5.55-5.56a5.57,5.57,0,0,0-5.55-5.56h0C976,503.05,967.82,487.48,955.1,485.7Z" transform="translate(-915.6 -480.44)" fill="#f9d5d2" stroke="#e15047" stroke-miterlimit="10" stroke-width="3"/>
  <line x1="34.76" x2="34.76" y2="27.46" fill="#f2a9a4" stroke="#e15047" stroke-miterlimit="10" stroke-width="3"/>
</svg>
