<?xml version="1.0" encoding="utf-8"?>
<!-- Generator: Adobe Illustrator 22.1.0, SVG Export Plug-In . SVG Version: 6.00 Build 0)  -->
<svg version="1.1" id="Layer_1" xmlns="http://www.w3.org/2000/svg" xmlns:xlink="http://www.w3.org/1999/xlink" x="0px" y="0px"
	 viewBox="0 0 252 143.5" style="enable-background:new 0 0 252 143.5;" xml:space="preserve">
<style type="text/css">
	.st0{fill:#2F4495;}
</style>
<g>
	<g>
		<g>
			<path class="st0" d="M61.5,31.2c-7,0-14,0-21.1,0c4.8,4.3,12,8.3,17.5,12.8c-2.8,6.6-7.8,11-14.2,14c4.8,2.2,9,4,13.2,7.6
				c2,1.7,5.6,4.8,6.2,6.9c0.6,2.4,0,71,0,71H0.5c0,0-0.1-47.2-0.2-70.8c4.4-6.3,10.1-11.2,18-14C7.9,52.8,0,43.9,0,30.3
				C0,13.9,13.4-1.6,32.4-0.5C49.6,0.6,60.2,13.5,61.5,31.2z"/>
			<path class="st0" d="M233.2,58.4c7.6,3.2,14.1,7.6,18.5,14.2c-0.2,23.5-0.2,70.8-0.2,70.8h-62.7c0,0-0.8-68.1-0.2-70.5
				c0.7-3.1,5.8-6.8,8.3-8.8c3.3-2.5,6.8-4.8,11.1-5.9c-5.8-3.5-11-7.6-14-14c5.6-4.8,18-13,18-13s-14.9,0.3-21.5-0.2
				c1.3-17.4,12.3-30.2,28.6-31.5c17-1.3,28.6,10.2,31.9,23.4C255.1,39.2,245.7,53.2,233.2,58.4z"/>
			<polygon class="st0" points="182.8,38.3 160.2,38.3 160.2,29.3 182.9,29.3 188.6,33.9 			"/>
			<path class="st0" d="M137.7,58c4,1.8,8.1,3.3,11.6,5.9c2.4,1.8,7.6,6,8.3,9c0.6,2.4-0.2,70.5-0.2,70.5H94.7
				c0,0-0.8-68.2-0.2-70.5c0.8-3.3,5.7-6.8,8.3-8.8c3.3-2.5,6.7-4.8,11.1-5.9c-10-6.3-18.9-13.8-18-29.6
				C96.8,13.3,108.8,0.4,125.2,0c15.9-0.4,27.3,10.4,30.3,23.4C159.3,40.2,149.5,52.7,137.7,58z M109.1,31.5
				c4.8,4.1,11.4,8.5,17,12.5c5.6-4.3,11.4-8.3,17-12.5C131.9,31.5,119.5,31.5,109.1,31.5z"/>
		</g>
	</g>
	<polygon class="st0" points="161.3,40.8 183.9,40.8 183.9,49.8 161.2,49.8 155.6,45.2 	"/>
	<polygon class="st0" points="88.2,38.3 65.5,38.3 65.5,29.3 88.3,29.3 93.9,33.9 	"/>
	<polygon class="st0" points="66.7,40.8 89.3,40.8 89.3,49.8 66.6,49.8 60.9,45.2 	"/>
</g>
</svg>
