<svg xmlns="http://www.w3.org/2000/svg" viewBox="0 0 75 68"><defs><style>.a{fill:#ceede3;}.b{fill:#17b791;}.c{fill:#26313f;}.d{fill:#fff;}.e{fill:none;}</style></defs><title>mail</title><rect class="a" x="50.2073" y="36.8818" width="19.876" height="28.874"/><path class="b" d="M71.5,66.9225H50.1237V36.5485H71.5Zm-19.876-1.5H70V38.0485H51.6237Z" transform="translate(-0.6667 -0.4167)"/><rect class="b" x="26.2563" y="10.0381" width="16.1343" height="1.7002"/><rect class="b" x="26.2563" y="15.813" width="16.1343" height="1.7002"/><rect class="b" x="26.2563" y="21.5884" width="16.1343" height="1.7002"/><rect class="b" x="26.2563" y="27.3638" width="16.1343" height="1.7002"/><rect class="b" x="26.2563" y="33.1387" width="16.1343" height="1.6992"/><rect class="b" x="26.2563" y="38.9141" width="16.1343" height="1.6992"/><rect class="b" x="26.2563" y="44.6895" width="16.1343" height="1.6992"/><rect class="b" x="26.2563" y="50.4648" width="16.1343" height="1.6992"/><rect class="b" x="26.2563" y="56.2402" width="16.1343" height="1.6992"/><rect class="b" x="55.8701" y="44.6895" width="2.8877" height="1.6992"/><rect class="b" x="61.5352" y="44.6895" width="2.8848" height="1.6992"/><rect class="b" x="55.8701" y="50.4648" width="2.8877" height="1.6992"/><rect class="b" x="61.5352" y="50.4648" width="2.8848" height="1.6992"/><rect class="b" x="55.8701" y="56.2402" width="2.8877" height="1.6992"/><rect class="b" x="61.5352" y="56.2402" width="2.8848" height="1.6992"/><path class="c" d="M52.1208,64.9255V1.3918H17.8576V64.9255H16.22v2.5H73.6374v-2.5ZM20.3576,3.8918H49.6208V64.9225H20.3576Z" transform="translate(-0.6667 -0.4167)"/><rect class="b" x="12.5869" y="56.4873" width="1.5" height="10.623"/><path class="d" d="M16.837,57.6542c5.4469,1.1363,6.829-5.5873,2.8045-8.1044,1.1592-4.2667-1.7483-8.531-5.76-8.531A6.22,6.22,0,0,0,7.9548,46.58a5.9041,5.9041,0,0,0-4.0859,5.7958c0,4.327,3.957,7.0513,7.3646,5.5994" transform="translate(-0.6667 -0.4167)"/><path class="c" d="M9.3273,59.612A6.38,6.38,0,0,1,5.81,58.5426,7.5063,7.5063,0,0,1,6.8644,45.6393a7.35,7.35,0,0,1,7.0176-5.87,7.0269,7.0269,0,0,1,5.5889,2.8467,8.3586,8.3586,0,0,1,1.5625,6.4082,6.1255,6.1255,0,0,1,1.769,6.8506c-.7715,1.9189-2.8091,3.7168-6.2207,3.0029l.5107-2.4473c1.6387.3428,2.8726-.2011,3.39-1.4882a3.6142,3.6142,0,0,0-1.5039-4.3331l-.7866-.4921.2436-.8955a5.8762,5.8762,0,0,0-.9507-5.087,4.549,4.549,0,0,0-3.603-1.8652,4.9537,4.9537,0,0,0-4.69,4.4932l-.1187.8017-.78.2188a4.6521,4.6521,0,0,0-3.1738,4.5928,4.8263,4.8263,0,0,0,2.07,4.081,3.717,3.717,0,0,0,3.5547.3672l.9805,2.3008A6.119,6.119,0,0,1,9.3273,59.612Z" transform="translate(-0.6667 -0.4167)"/><rect class="b" x="12.5869" y="47.3652" width="1.5" height="13.0928"/><path class="b" d="M13.319,57.2858l-.1064-.7412c-.1119-.7813-.67-2.9736-1.8941-3.7217a2.039,2.039,0,0,0-1.8135-.1045l-.7094.2442-.4878-1.419.709-.2431a3.4916,3.4916,0,0,1,3.0883.2451c2.0772,1.2734,2.5728,4.6465,2.5928,4.789l.104.7422Z" transform="translate(-0.6667 -0.4167)"/><path class="b" d="M14.3254,55.8522l-1.3633-.6211.3105-.6816c.1992-.4375,1.2739-2.6338,2.8706-2.9141a2.0694,2.0694,0,0,1,1.8882.6885l.5249.5361L17.485,53.91l-.5249-.5351c-.3-.3057-.4878-.2764-.5566-.2617-.6094.1054-1.4141,1.291-1.7661,2.0585Z" transform="translate(-0.6667 -0.4167)"/><rect class="e" width="75" height="68"/></svg>