<svg xmlns="http://www.w3.org/2000/svg" viewBox="0 0 66.2438 66.2437"><defs><style>.a{fill:#cde8f7;stroke:#26a2dc;stroke-linecap:round;stroke-width:1.56px;}.a,.b{stroke-linejoin:round;}.b{fill:none;stroke:#26313f;stroke-width:2px;}</style></defs><title>mag</title><path class="a" d="M1041.0454,634.6492c3.8511-1.716,6.9559-3.4239,7.3374-4.6491v-1.9807a12.5263,12.5263,0,0,1-2.9557-5.3974,3.2107,3.2107,0,0,1-.6184-4.6511v-4.4352c0-4.5773,2.7021-7.71,8.3789-7.71,5.8267,0,8.3754,3.1331,8.3754,7.71V617.97a3.2093,3.2093,0,0,1-.6181,4.6534,12.5319,12.5319,0,0,1-2.9546,5.3965V630c.3826,1.2263,3.4863,2.9343,7.3369,4.65l5.8859,2.6888s-7.1169,7.7-18.0264,7.7a25.76,25.76,0,0,1-17.6972-7.3549Z" transform="translate(-1027.216 -594.0977)"/><path class="b" d="M1073.0957,635.1408l18.3624,18.3625a3.42,3.42,0,0,1,0,4.8364h0a3.42,3.42,0,0,1-4.8365,0L1068.26,639.9775" transform="translate(-1027.216 -594.0977)"/><circle class="b" cx="1053.1867" cy="620.0684" r="24.9707" transform="matrix(0.1602, -0.9871, 0.9871, 0.1602, -754.7928, 966.2342)"/></svg>