<svg xmlns="http://www.w3.org/2000/svg" viewBox="0 0 75 68"><defs><style>.a{fill:#17b791;}.b{fill:#ceede3;}.c{fill:#fff;}.d{fill:#26313f;}.e{fill:none;}</style></defs><title>email</title><polygon class="a" points="46.063 17.482 36.354 8.415 26.675 17.478 25.649 16.383 36.352 6.361 47.087 16.386 46.063 17.482"/><path class="b" d="M56.4851,26.1138l3.9911,3.7512a3.3077,3.3077,0,0,1,1.0368,2.4067V57.856a3.3,3.3,0,0,1-3.3,3.3029H15.896a3.3008,3.3008,0,0,1-3.3-3.3029V32.2676a3.3059,3.3059,0,0,1,1.0352-2.4026l5.9483-5.61" transform="translate(-0.6667 -0.4167)"/><path class="a" d="M58.2126,61.9089H15.8962a4.0563,4.0563,0,0,1-4.05-4.0528V32.2677a4.0743,4.0743,0,0,1,1.269-2.9477l6.4956-6.125,1.0288,1.0913L14.1452,30.41a2.5679,2.5679,0,0,0-.7993,1.8574V57.8561a2.5547,2.5547,0,0,0,2.55,2.5528H58.2126a2.5551,2.5551,0,0,0,2.5507-2.5528V32.2716a2.5688,2.5688,0,0,0-.8017-1.8613l-4.5371-4.2637,1.0273-1.0927L60.99,29.3185a4.0765,4.0765,0,0,1,1.2734,2.9531V57.8561A4.0567,4.0567,0,0,1,58.2126,61.9089Z" transform="translate(-0.6667 -0.4167)"/><path class="c" d="M54.8391,37.3431,42.8365,46.3084s-2.8987-2.6442-5.6274-2.6442-5.711,2.9113-5.711,2.9113l-11.919-9.2324V16.8344h35.26Z" transform="translate(-0.6667 -0.4167)"/><path class="a" d="M17.029,57.5124l-.854-1.2334,18.54-12.8438a4.0692,4.0692,0,0,1,4.6094-.0058l18.61,12.8476-.8515,1.2344L38.4723,44.6637a2.5629,2.5629,0,0,0-2.9023.0039Z" transform="translate(-0.6667 -0.4167)"/><path class="d" d="M56.86,6.4245a10.4834,10.4834,0,0,0-10.383,9.16H18.3293V37.3434h2.5V18.0841H46.4575a10.488,10.488,0,0,0,6.8156,8.64V37.3434h2.5v-10.03A10.4728,10.4728,0,1,0,56.86,6.4245Zm0,18.4458a7.9729,7.9729,0,1,1,7.9737-7.9722A7.9822,7.9822,0,0,1,56.86,24.87Z" transform="translate(-0.6667 -0.4167)"/><polygon class="a" points="57.049 21.362 55.35 21.362 55.35 13.859 54.469 14.184 53.881 12.588 57.049 11.421 57.049 21.362"/><rect class="a" x="25.9058" y="34.2021" width="20.9653" height="1.6992"/><rect class="a" x="25.9058" y="29.5425" width="20.9653" height="1.7002"/><rect class="a" x="25.9058" y="24.8833" width="9.3188" height="1.7002"/><rect class="a" x="44.2245" y="38.8326" width="14.7818" height="1.5002" transform="translate(-14.0951 39.6547) rotate(-37.9142)"/><rect class="a" x="21.713" y="32.2169" width="1.4999" height="14.7374" transform="translate(-23.216 32.4233) rotate(-51.9041)"/><rect class="e" width="75" height="68"/></svg>