<svg id="Layer_1" data-name="Layer 1" xmlns="http://www.w3.org/2000/svg" viewBox="0 0 61.46 61.53">
  <title>icon-job-step1</title>
  <path d="M1030.2,136.21v-28a1.33,1.33,0,0,1,1.33-1.34h39.11a1.33,1.33,0,0,1,1.33,1.34v28" transform="translate(-1020.36 -99.82)" fill="#cde8f7" stroke="#26a2dc" stroke-linecap="round" stroke-linejoin="round" stroke-width="1.5"/>
  <line x1="9.84" y1="12.38" x2="51.62" y2="12.38" fill="#cde8f7" stroke="#26a2dc" stroke-linecap="round" stroke-linejoin="round" stroke-width="1.5"/>
  <g>
    <path d="M1041.55,151.68l-1.24,7.66a1.14,1.14,0,0,0,1.24,1h19.07a1.14,1.14,0,0,0,1.24-1l-1.25-7.66" transform="translate(-1020.36 -99.82)" fill="none" stroke="#26313f" stroke-linejoin="round" stroke-width="2"/>
    <path d="M1076.61,100.82h-51.06a4.17,4.17,0,0,0-4.19,4.22v35.49a4.19,4.19,0,0,0,4.19,4.24h51.06a4.2,4.2,0,0,0,4.2-4.24V105A4.18,4.18,0,0,0,1076.61,100.82Z" transform="translate(-1020.36 -99.82)" fill="none" stroke="#26313f" stroke-linejoin="round" stroke-width="2"/>
    <line x1="1" y1="37.19" x2="60.46" y2="37.19" fill="none" stroke="#26313f" stroke-linejoin="round" stroke-width="2"/>
  </g>
  <line x1="15.55" y1="18.71" x2="28.89" y2="18.71" fill="#cde8f7" stroke="#26a2dc" stroke-linecap="round" stroke-linejoin="round" stroke-width="1.5"/>
  <line x1="15.55" y1="22.05" x2="23.33" y2="22.05" fill="#cde8f7" stroke="#26a2dc" stroke-linecap="round" stroke-linejoin="round" stroke-width="1.5"/>
  <line x1="15.55" y1="26.71" x2="28.89" y2="26.71" fill="#cde8f7" stroke="#26a2dc" stroke-linecap="round" stroke-linejoin="round" stroke-width="1.5"/>
  <line x1="15.55" y1="30.05" x2="23.33" y2="30.05" fill="#cde8f7" stroke="#26a2dc" stroke-linecap="round" stroke-linejoin="round" stroke-width="1.5"/>
  <rect x="37.8" y="18.71" width="9" height="8" fill="#cde8f7" stroke="#26a2dc" stroke-linecap="round" stroke-linejoin="round" stroke-width="1.5"/>
  <circle cx="18.23" cy="9.75" r="0.67" fill="#26a2dc"/>
  <circle cx="15.56" cy="9.75" r="0.67" fill="#26a2dc"/>
  <circle cx="12.9" cy="9.75" r="0.67" fill="#26a2dc"/>
</svg>
