<svg xmlns="http://www.w3.org/2000/svg" viewBox="0 0 75 68"><defs><style>.a{fill:#ceede3;}.b{fill:#17b791;}.c{fill:#26313f;}.d,.e{fill:none;}.d{stroke:#003956;stroke-linecap:square;stroke-width:1.6px;}</style></defs><title>media-enquiry</title><path class="a" d="M60.7684,54.5172c5.8145-1.0438,8.9674-6.1208,8.9674-12.3046,0-6.9384-4.6211-12.5024-10.6483-12.5024H50.4133a12.944,12.944,0,0,1-5.7215,6.5864,25.1813,25.1813,0,0,1-7.24,3.0031,26.5269,26.5269,0,0,0-.3217,3.0441c0,6.938,4.8861,12.5961,10.913,12.5961h3.4791l9.2465,8.5716Z" transform="translate(-0.6667 -0.4167)"/><path class="a" d="M61.9684,66.26,51.0514,56.14H48.0426c-6.6787,0-12.1132-6.19-12.1132-13.7969a27.244,27.244,0,0,1,.3379-3.2353l.1367-.8448.8427-.1464a24.6149,24.6149,0,0,0,6.8516-2.8633,11.8834,11.8834,0,0,0,5.1738-5.9146l.2725-.8242,9.543-.0049c6.6435,0,11.8486,6.0191,11.8486,13.7027,0,6.7119-3.4854,11.8066-8.9678,13.2666ZM38.5212,40.277a18.4684,18.4684,0,0,0-.1914,2.0664c0,6.2842,4.3574,11.3965,9.7128,11.3965h3.95l7.5752,7.0225V53.5133l.9883-.1767c4.9219-.8838,7.9795-5.1465,7.9795-11.124,0-6.3379-4.15-11.3023-9.4482-11.3023H51.22A14.4155,14.4155,0,0,1,45.2858,37.34,30.1826,30.1826,0,0,1,38.5212,40.277Z" transform="translate(-0.6667 -0.4167)"/><path class="b" d="M62.0114,66.3659,51.0993,56.25H47.68c-6.8349,0-12.3964-6.3662-12.3964-14.1924v-.75h1.5v.75c0,6.999,4.8876,12.6924,10.8964,12.6924h4.0069L60.5114,62.93V54.4215l.6172-.1113c5.5224-.99,8.9531-5.7392,8.9531-12.3935,0-7.0616-4.6621-12.5928-10.6143-12.5928H54.5827v-1.5h4.8847c6.793,0,12.1143,6.19,12.1143,14.0928,0,7.0693-3.7344,12.3906-9.57,13.7431Z" transform="translate(-0.6667 -0.4167)"/><path class="c" d="M17.7336,53.17V39.0964c-7.7163-1.835-12.6412-8.7168-12.6412-17.83,0-10.2793,7.1426-18.3311,16.2608-18.3311h15.57c9.1719,0,16.6338,8.3037,16.6338,18.51,0,10.1782-7.4619,18.4589-16.6338,18.4589H32.4987Zm3.62-47.7339c-7.7163,0-13.7608,6.9536-13.7608,15.8311,0,8.3637,4.4468,14.3335,11.6055,15.58l1.0357.1806V47.5622L31.54,37.4049h5.3838c7.793,0,14.1338-7.1591,14.1338-15.9589,0-8.8282-6.3408-16.01-14.1338-16.01Z" transform="translate(-0.6667 -0.4167)"/><path class="d" d="M36.1751,39.7638" transform="translate(-0.6667 -0.4167)"/><rect class="b" x="17.5459" y="13.8389" width="22.9678" height="1.5"/><rect class="b" x="17.5459" y="20.2793" width="22.9678" height="1.5"/><rect class="b" x="17.5459" y="26.7197" width="12.2627" height="1.5"/><rect class="e" width="75" height="68"/></svg>