<svg id="Layer_1" data-name="Layer 1" xmlns="http://www.w3.org/2000/svg" width="144.58mm" height="110.56mm" viewBox="0 0 409.83 313.39">
  <title>logo</title>
  <rect x="312.01" y="347.92" width="19.53" height="88.19" transform="translate(645.15 -18.14) rotate(90)" fill="#cd9dca"/>
  <rect x="312.01" y="54.06" width="19.53" height="88.19" transform="translate(351.29 -312.01) rotate(90)" fill="#8bdbc8"/>
  <polygon points="409.83 88.19 409.83 0 321.64 0 321.64 19.53 390.3 19.53 390.3 88.19 409.83 88.19" fill="#26a2dc"/>
  <polygon points="184.63 0 96.44 0 96.44 88.19 115.97 88.19 115.97 19.53 184.63 19.53 184.63 0" fill="#18b792"/>
  <polygon points="409.83 225.2 409.83 313.39 321.64 313.39 321.64 293.86 390.3 293.86 390.3 225.2 409.83 225.2" fill="#9b3a96"/>
  <polygon points="184.63 313.39 96.44 313.39 96.44 225.2 115.97 225.2 115.97 293.86 184.63 293.86 184.63 313.39" fill="#e15047"/>
  <rect x="458.94" y="200.99" width="19.53" height="88.19" transform="translate(868.76 401.78) rotate(-180)" fill="#92d0ed"/>
  <g>
    <path d="M150.28,289.18H129.11l-5.67-18.65H93.58l-5.67,18.65H68.64L97.49,201h23.94ZM98.75,253.53h19.4l-9.7-31.75Z" transform="translate(-68.64 -88.39)" fill="#26313f"/>
    <path d="M165.07,201h40.82c15.5,0,25.71,7.94,25.71,23.43,0,9.83-4.16,16.76-11.22,20.41,7.81,3.53,12.48,10.59,12.48,20.92,0,15.49-10.21,23.43-25.71,23.43H165.07Zm19.53,35.53h17.89c6.3,0,8.95-3.28,8.95-9.33s-2.77-9.19-8.95-9.19H184.6Zm0,35.65h19.15c6.18,0,8.95-3.15,8.95-9.2s-2.65-9.44-8.95-9.44H184.6Z" transform="translate(-68.64 -88.39)" fill="#26313f"/>
    <path d="M318.84,257.68v.76c0,21.16-13.85,32-35.27,32-21.17,0-35-10.84-35-32V231.73c0-21.17,13.86-32,35.28-32,21.17,0,35,10.83,35,32v.76H299.32v-.76c0-9.95-6.18-15-15.5-15-9.57,0-15.75,5-15.75,15v26.71c0,9.95,6.18,15,15.5,15,9.57,0,15.75-5,15.75-15v-.76Z" transform="translate(-68.64 -88.39)" fill="#26313f"/>
    <path d="M406.52,257.68v.76c0,21.16-13.86,32-35.27,32-21.17,0-35-10.84-35-32V231.73c0-21.17,13.86-32,35.28-32,21.16,0,35,10.83,35,32v.76H387v-.76c0-9.95-6.17-15-15.49-15-9.58,0-15.75,5-15.75,15v26.71c0,9.95,6.17,15,15.5,15,9.57,0,15.74-5,15.74-15v-.76Z" transform="translate(-68.64 -88.39)" fill="#26313f"/>
  </g>
</svg>
